<svg width="112" height="113" viewBox="0 0 112 113" fill="none" xmlns="http://www.w3.org/2000/svg">
<path fill-rule="evenodd" clip-rule="evenodd" d="M94.0563 93.6204V93.6238C83.9652 104.086 70.3998 109.85 55.8691 109.85C31.4002 109.85 10.7343 93.1828 4.65387 70.5986L27.6891 70.5979C28.4712 70.5979 29.0997 69.964 29.0997 69.1815C29.1001 68.3955 28.4708 67.7601 27.6883 67.7601L3.97146 67.7597C3.22747 64.2284 2.83642 60.5638 2.83642 56.8139C2.83681 55.6503 2.87453 54.4945 2.95112 53.3495C5.9267 54.6057 7.94313 55.3451 8.97848 55.5607C10.5508 55.887 11.8463 55.7369 13.0964 55.5857C15.144 55.3486 17.2447 55.1011 21.2399 56.9747C24.3148 58.4104 30.8402 62.9259 37.1585 67.2936C44.3205 72.2433 51.7281 77.365 55.3168 78.8903C57.3952 79.7763 61.4281 80.2255 66.0829 80.4229L68.2298 85.311L70.3309 80.533C70.9752 80.5411 71.6269 80.5449 72.2785 80.5488L74.3723 85.311L76.4734 80.5191C77.1173 80.5084 77.7535 80.4988 78.3824 80.4834L80.5066 85.311L82.677 80.3614C83.2902 80.3402 83.8802 80.3152 84.4479 80.2936L84.4325 80.2971L86.641 85.311L88.9342 80.0854C90.4595 80.0026 91.4333 79.9422 91.6407 79.9268V79.9091C92.9439 79.7975 93.9716 79.1886 94.5624 78.1548C96.518 74.7443 92.8365 68.2739 92.4151 67.5449C90.6057 64.4547 87.0932 63.6395 83.0292 62.6957C80.4989 62.1068 77.6311 61.4429 74.679 60.1335C70.7609 58.3888 62.4711 46.0885 53.0548 28.0349C51.8124 25.6448 49.0901 24.3569 46.4528 24.9054C29.5212 28.4148 19.4147 28.3263 16.4242 24.6368C15.9334 24.0298 15.6267 23.3085 15.4735 22.4933C25.2042 11.0513 39.7046 3.78002 55.8691 3.78002C85.1149 3.78002 108.909 27.5685 108.909 56.8139C108.909 70.6167 103.633 83.6887 94.0563 93.6204ZM3.50344 48.436C5.82701 49.3832 7.86692 50.1376 8.97848 50.367C10.4203 50.661 11.8848 50.2846 13.4182 49.728C13.8712 49.5629 14.3307 49.3836 14.7984 49.2007C17.7894 48.0261 20.8796 46.8137 24.5064 48.5149C27.2826 49.8108 32.8647 54.3332 38.5695 59.0339C39.1761 59.5408 39.7888 60.0473 40.3947 60.5492C47.6259 66.5254 54.4581 72.1713 58.0545 73.6997C62.249 75.4802 73.9273 75.5668 82.6304 75.3443C87.0782 75.2323 90.7431 75.0422 92.2465 74.9564C92.3539 75.7388 92.3073 76.3674 92.0929 76.7438C92.0398 76.8477 91.9009 77.0959 91.1877 77.0959L91.1885 77.1137C90.2528 77.171 89.1485 77.2361 87.9061 77.3003C78.3131 77.7853 60.9677 78.2075 56.4287 76.2777C53.1006 74.8636 45.8162 69.8277 38.7693 64.9612C32.0676 60.3233 25.7254 55.9413 22.4438 54.4014C17.7201 52.1867 14.975 52.5062 12.7669 52.7687C11.6473 52.8972 10.6805 53.0127 9.55389 52.7791C8.61823 52.5847 6.41744 51.7491 3.22748 50.3777C3.30407 49.7242 3.39644 49.0791 3.50344 48.436ZM5.65843 39.7467L48.7379 36.5021C49.1212 37.198 49.5196 37.9127 49.9337 38.6379L25.2119 45.726C20.6957 43.8381 16.8614 45.3422 13.7557 46.5585C12.0607 47.2228 10.5889 47.8044 9.55389 47.5892C8.55703 47.3802 6.46323 46.5874 4.03266 45.5828C4.46219 43.5941 5.00643 41.6458 5.65843 39.7467ZM50.1335 33.1644C49.1212 31.3377 48.1086 29.4925 47.1271 27.6658C48.4996 27.4249 49.8876 28.1031 50.5396 29.3493C50.9922 30.2173 51.4752 31.1329 51.981 32.084L50.1335 33.1644ZM52.6257 37.6183C52.2573 36.9651 51.889 36.3043 51.5133 35.6407L53.3235 34.5858C53.6833 35.2385 54.044 35.9028 54.42 36.5775L52.6257 37.6183ZM55.179 42.0468C54.7953 41.3979 54.4123 40.7336 54.0209 40.0554L55.7925 39.0435C56.1678 39.7036 56.5438 40.3675 56.9191 41.0319L55.179 42.0468ZM48.8299 62.8354L57.2801 51.0055C57.7401 51.7268 58.1923 52.4165 58.6215 53.0589L57.6481 66.1016L57.3567 70.1145C55.0562 68.7004 51.8659 66.2452 48.4 63.4416L48.8299 62.8354ZM36.8294 53.9453C33.7546 51.4396 30.9249 49.2254 28.6548 47.6897L51.3755 41.1754C51.8282 41.9683 52.2954 42.7654 52.7557 43.5583L36.8294 53.9453ZM54.1975 46.0058C54.6879 46.821 55.1713 47.625 55.6463 48.4071L46.1919 61.6484C44.8809 60.5708 43.5388 59.4623 42.2044 58.3634C41.1771 57.5093 40.1495 56.6626 39.1372 55.8297L54.1975 46.0058ZM57.7939 46.4403C57.4102 45.8122 57.0192 45.1633 56.6204 44.4912L58.3536 43.4828C58.7369 44.136 59.1276 44.7857 59.519 45.4323L57.7939 46.4403ZM60.5005 50.7757C60.1171 50.1799 59.7103 49.5375 59.2812 48.8594L61.0147 47.8506C61.4127 48.4972 61.8191 49.1396 62.2336 49.7715L60.5005 50.7757ZM69.7328 60.1505H70.1319C71.3505 61.3744 72.5009 62.2689 73.5282 62.7281C76.7262 64.1456 79.7322 64.8453 82.3853 65.4592C86.0891 66.3202 88.7725 66.9418 89.9614 68.9806C90.5826 70.0352 91.0961 71.1271 91.4871 72.1578C87.5305 72.3757 81.2425 72.6124 75.1771 72.5877C69.0504 72.562 63.1458 72.2679 60.1094 71.4108L60.4243 67.1246L61.206 56.5798C61.8657 57.3727 62.433 57.9227 62.8699 58.1594C66.4509 60.125 69.6023 60.1508 69.7328 60.1505ZM64.2351 55.6711C63.8209 55.4244 63.0696 54.5265 62.0874 53.1343L63.8059 52.1398C64.9787 53.8694 66.1441 55.4775 67.2788 56.9024C66.3897 56.6626 65.3393 56.2781 64.2351 55.6711ZM13.3724 25.1175C13.6029 25.5728 13.8781 26.0112 14.2157 26.4234C17.8964 30.9493 27.1903 31.5355 44.2131 28.2466L44.3825 28.5522C45.0568 29.8154 46.0464 31.639 47.2195 33.7709L6.7469 36.822C8.46504 32.6263 10.6962 28.6993 13.3724 25.1175ZM55.8691 0.940308C40.1341 0.940308 25.8943 7.47995 15.7267 17.9893C14.6075 19.1521 13.5256 20.3614 12.5137 21.6185C7.18451 28.1681 3.30406 35.9459 1.37923 44.4551C1.16485 45.3954 0.972792 46.3472 0.811909 47.309C0.697597 47.9337 0.605226 48.5618 0.512853 49.1934C0.38276 50.1737 0.274992 51.1606 0.191086 52.1578C0.0606088 53.6943 -0.000976562 55.2447 -0.000976562 56.8139C-0.000206785 61.0449 0.474747 65.1648 1.37192 69.1311V69.1341C1.42581 69.3755 1.47931 69.6114 1.53281 69.8493C1.53281 69.8531 1.53281 69.8562 1.54051 69.8562C7.43008 94.3955 29.5523 112.685 55.8691 112.685C71.1823 112.685 85.4675 106.617 96.0958 95.5902C106.187 85.1244 111.747 71.3573 111.747 56.8139C111.747 26.0039 86.6791 0.940693 55.8691 0.940308Z" fill="#1A1A18"/>
</svg>
