<svg width="112" height="341" viewBox="0 0 112 341" fill="none" xmlns="http://www.w3.org/2000/svg">
<path fill-rule="evenodd" clip-rule="evenodd" d="M55.9757 0.569611C86.8334 0.569611 111.849 25.5847 111.849 56.4428C111.849 87.3005 86.8334 112.316 55.9757 112.316C25.1176 112.316 0.102539 87.3005 0.102539 56.4428C0.102539 25.5847 25.1176 0.569611 55.9757 0.569611ZM55.9757 3.40702C85.2669 3.40702 109.011 27.1516 109.011 56.4428C109.011 85.7336 85.2669 109.479 55.9757 109.479C26.6845 109.479 2.93954 85.7336 2.93954 56.4428C2.93954 27.1516 26.6845 3.40702 55.9757 3.40702Z" fill="#1A1A18"/>
<path fill-rule="evenodd" clip-rule="evenodd" d="M55.9757 3.2446C85.3562 3.2446 109.174 27.0619 109.174 56.4428C109.174 85.8233 85.3562 109.641 55.9757 109.641C26.5948 109.641 2.7771 85.8233 2.7771 56.4428C2.7771 27.0619 26.5948 3.2446 55.9757 3.2446Z" fill="white"/>
<path fill-rule="evenodd" clip-rule="evenodd" d="M24.561 100.963H24.7257C24.9867 100.809 40.1505 97.0771 40.2175 97.0605L53.8052 93.6639C54.3937 93.5165 55.1847 93.1882 55.7735 93.3317C60.9988 94.6049 66.2729 95.7488 71.5209 96.9997C71.8203 97.0713 86.8225 100.614 87.2586 100.65L87.5842 99.2336L78.126 97.0363L78.1248 86.7601H87.7216V65.7036L66.6647 65.7029L66.664 86.7601H76.6591V96.686L55.9879 91.8799C55.941 91.8018 55.9629 91.9557 55.936 91.7279C55.9344 91.7156 55.9364 91.5997 55.9364 91.5789C55.9421 90.0779 55.8821 82.337 55.9629 81.9667L64.1695 81.9059V80.5149L55.9629 80.5022L55.9633 74.419L54.51 74.3944V80.5022L31.6037 80.5026L36.272 71.9608C37.2177 70.2888 38.1326 68.4921 39.0848 66.8271C40.5035 64.3461 41.8795 61.5668 43.2839 59.1555C44.2562 57.4851 42.1381 57.7945 41.1389 57.7945C39.3646 57.7945 37.5907 57.7945 35.8159 57.7949C35.8633 57.5763 36.6146 56.387 36.7878 56.0879C39.0763 52.1475 41.468 48.1996 43.76 44.2388C45.3927 41.4187 47.1297 38.5809 48.7463 35.7666C48.9129 35.4764 49.165 35.1723 49.0003 34.7493C48.8621 34.3948 48.5369 34.3025 48.0919 34.3036C46.2899 34.3086 44.4867 34.3078 42.6847 34.3048C42.7501 34.0661 43.9914 31.9246 44.2242 31.4939C45.7453 28.6769 47.4673 25.7787 48.9391 22.9975C50.6534 19.7587 52.6713 16.4055 54.4203 13.1336L55.1704 11.7965C55.2124 11.7395 55.2112 11.743 55.2428 11.7149C55.4245 11.9331 58.2264 17.0279 58.4004 17.3527C60.1455 20.6216 62.1119 23.9416 63.8778 27.2224L66.2394 31.4635C66.4738 31.8727 67.6974 34.0315 67.7917 34.3013C66.0366 34.3467 64.2045 34.3132 62.4433 34.304C61.9776 34.3013 61.6577 34.3756 61.493 34.7089C61.2994 35.1 61.5145 35.4005 61.677 35.68C62.0188 36.2689 62.3567 36.8285 62.6889 37.3989C65.3219 41.9152 68.06 46.4469 70.6734 50.9674C71.3408 52.122 72.0158 53.2298 72.6786 54.3752C72.9427 54.8317 74.6016 57.5678 74.6608 57.7953L68.6019 57.7945C67.8964 57.7945 67.2236 57.6752 67.0031 58.2452C66.8229 58.7113 67.2817 59.3684 67.4657 59.7355C67.6932 60.1901 67.9118 60.6273 68.1439 61.093L69.4891 63.8165L70.7954 63.1818C70.6876 62.6707 69.033 59.8237 68.8898 59.2594C70.7465 59.2652 72.6043 59.2594 74.4614 59.2594C75.2508 59.2594 76.5417 59.4977 76.6853 58.6886C76.7692 58.2152 76.1245 57.3523 75.807 56.8104L63.9613 36.673C63.8246 36.4359 63.5375 36.0206 63.4521 35.7731C64.2892 35.7504 68.9187 35.8335 69.2754 35.735C69.598 35.6453 69.8789 35.2785 69.7666 34.8417C69.7192 34.6589 69.3501 34.053 69.2493 33.8683L67.1582 30.0987C66.8114 29.4455 66.4461 28.8621 66.1093 28.2181C64.8246 25.7625 63.2308 23.1464 61.9044 20.6539C60.5804 18.1671 59.0701 15.6153 57.7173 13.1216L55.8725 9.80004C55.7501 9.61568 55.6192 9.55602 55.4668 9.43671H55.0346C54.6181 9.72306 54.6335 9.7146 54.3726 10.2042C54.2051 10.5186 54.0231 10.8427 53.8433 11.1668L51.7472 14.9295C51.3916 15.5534 51.0437 16.1746 50.7015 16.8143L48.6112 20.5846C47.891 21.8428 47.2213 23.1153 46.4947 24.3754L44.4032 28.1454C43.4159 30.0002 42.2671 31.9573 41.2494 33.8333C41.1031 34.1039 40.8418 34.4961 40.7402 34.7616C40.5551 35.2447 40.8433 35.6207 41.1686 35.7239C41.6905 35.8897 45.9589 35.6638 47.0235 35.782C46.3823 36.959 45.6679 38.084 44.9894 39.2594C42.9683 42.7596 40.8276 46.2725 38.8092 49.7673C37.4571 52.1078 36.0511 54.4314 34.6897 56.7719C34.3895 57.288 33.7244 58.2094 33.7845 58.6475C33.9015 59.5046 35.2032 59.2594 35.9741 59.2594C37.8278 59.2594 39.6825 59.2637 41.5361 59.2594C41.4622 59.5304 36.7982 67.9033 36.3001 68.8601C35.0858 71.1937 33.602 73.722 32.3435 76.0772C31.8108 77.074 30.1142 80.0319 29.7104 80.896C29.4572 81.439 29.8163 81.9036 30.2824 81.959C30.7427 82.0141 38.7088 81.9679 39.5994 81.9679C44.5695 81.9679 49.5395 81.966 54.51 81.9679V91.9896L24.2292 99.5523L24.561 100.963Z" fill="#1A1A18" stroke="#1A1A18" stroke-width="0.00184889" stroke-miterlimit="22.9256"/>
<path fill-rule="evenodd" clip-rule="evenodd" d="M68.1035 84.2456L85.4043 67.1312H68.1035V84.2456Z" fill="white" stroke="#1A1A18" stroke-width="0.00184889" stroke-miterlimit="22.9256"/>
<path fill-rule="evenodd" clip-rule="evenodd" d="M69.2041 85.2598L86.2489 85.2536L86.1619 68.4752L70.2722 84.2087C69.9246 84.5562 69.5062 84.9045 69.2041 85.2598Z" fill="white" stroke="#1A1A18" stroke-width="0.00184889" stroke-miterlimit="22.9256"/>
</svg>
