<svg width="11" height="18" viewBox="0 0 11 18" fill="none" xmlns="http://www.w3.org/2000/svg">
<g id="facebook">
<path id="Path" d="M10.1914 3H6.97307C6.38059 3 5.90029 3.44772 5.90029 4V7H10.1914C10.3134 6.99748 10.4291 7.05039 10.5017 7.14188C10.5742 7.23336 10.5945 7.35201 10.5561 7.46L9.76229 9.66C9.68914 9.86192 9.48671 9.99842 9.25809 10H5.90029V17.5C5.90029 17.7761 5.66014 18 5.3639 18H2.68195C2.38571 18 2.14556 17.7761 2.14556 17.5V10H0.53639C0.24015 10 0 9.77614 0 9.5V7.5C0 7.22386 0.24015 7 0.53639 7H2.14556V4C2.14556 1.79086 4.06676 0 6.43668 0H10.1914C10.4876 0 10.7278 0.223858 10.7278 0.5V2.5C10.7278 2.77614 10.4876 3 10.1914 3Z" fill="#333333"/>
</g>
</svg>
