<svg width="112" height="113" viewBox="0 0 112 113" fill="none" xmlns="http://www.w3.org/2000/svg">
<path fill-rule="evenodd" clip-rule="evenodd" d="M110.115 51.6621L110.267 51.8757C110.229 51.8946 110.191 51.9339 110.152 51.9535C110.153 51.8561 110.137 51.7587 110.115 51.6621ZM6.00422 46.5681C6.29635 44.6641 7.01608 42.8955 7.96714 41.6904C8.66494 40.8152 9.44743 40.3102 10.1067 40.3102C10.1833 40.3102 10.2445 40.3291 10.2984 40.3291C11.0193 40.4457 11.6786 41.1654 12.1309 42.3317C12.4996 43.2839 12.6909 44.4497 12.6909 45.6944C12.6909 46.2972 12.6528 46.9376 12.5527 47.5608C12.2613 49.466 11.5485 51.2542 10.5898 52.4396C9.81577 53.4103 8.97979 53.8968 8.25851 53.7998C6.7024 53.5662 5.4215 50.4174 6.00422 46.5681ZM105.506 75.5895C105.506 75.24 105.49 74.9094 105.467 74.5788C105.215 71.4897 103.742 70.5171 102.883 70.2242C102.009 69.914 100.26 69.7381 98.1212 71.975C96.8018 73.3545 95.6363 75.3563 94.8388 77.6113C94.0417 79.8649 93.6734 82.1407 93.8266 84.0459C94.0802 87.1358 95.5524 88.1077 96.4342 88.4198C96.7798 88.5349 97.147 88.5942 97.5154 88.5942C97.8302 88.5942 98.1212 88.5545 98.4352 88.4771C94.0802 94.2897 88.5744 99.1882 82.263 102.803C80.5914 100.607 76.1209 100.607 72.0954 101.871C67.7631 103.23 63.8291 106.126 64.3199 109.178C61.5748 109.606 58.7605 109.84 55.9004 109.84C26.6704 109.84 2.87545 86.0473 2.87545 56.8127C2.87583 54.772 2.99092 52.7698 3.22801 50.7869C3.78879 53.9353 5.48307 56.2489 7.82896 56.618C8.04412 56.638 8.2585 56.6572 8.47327 56.6572C10.0305 56.6565 11.5485 55.802 12.806 54.2082C14.0946 52.6143 14.9833 50.3989 15.3516 47.9876C15.7276 45.5778 15.5125 43.2061 14.7916 41.3013C13.9333 39.1436 12.4988 37.8023 10.7279 37.5298C8.9563 37.2581 7.19276 38.1133 5.73557 39.9211C5.67475 39.9988 5.61316 40.0566 5.57467 40.1347C12.5531 19.0255 32.4823 3.76656 55.9004 3.76656C77.0339 3.76618 95.3219 16.1873 103.857 34.1089C101.971 35.6642 101.288 39.552 102.2 43.9251C103.098 48.299 105.505 52.4204 108.48 52.4204C108.581 52.4196 108.657 52.4204 108.756 52.4004C108.887 53.8575 108.948 55.3155 108.948 56.8127C108.948 63.4209 107.721 69.7588 105.506 75.5895ZM101.794 80.0804C100.3 84.2391 97.9826 85.9507 97.3614 85.736C97.147 85.6594 96.7637 85.0751 96.6644 83.8123C96.5493 82.3343 96.8557 80.4103 97.5154 78.5447C98.182 76.6972 99.133 75.0064 100.16 73.938C100.92 73.1401 101.526 72.8687 101.817 72.8687C101.856 72.8687 101.893 72.8876 101.932 72.8876C102.163 72.9657 102.538 73.5485 102.63 74.8124C102.768 76.2885 102.453 78.2145 101.794 80.0804ZM67.1188 108.634C67.1957 107.837 69.0436 105.796 72.9314 104.571C76.1983 103.541 78.5673 103.794 79.5792 104.241C75.6699 106.224 71.4896 107.701 67.1188 108.634ZM105.138 37.1022C106.732 41.0488 107.86 45.2276 108.442 49.5826C107.684 49.4841 105.82 47.4053 104.984 43.342C104.379 40.4457 104.654 38.2499 105.138 37.1022ZM55.9008 0.928009C25.0908 0.928009 0.0388184 26.0035 0.0388184 56.8127C0.0388184 87.6223 25.0901 112.697 55.9004 112.697C86.7343 112.697 111.786 87.6227 111.786 56.8127C111.786 26.0028 86.7335 0.928394 55.9008 0.928009" fill="#1A1A18"/>
<path fill-rule="evenodd" clip-rule="evenodd" d="M44.1228 56.4043C40.3728 56.4043 37.3207 53.3337 37.3207 49.5826C37.3207 45.8299 40.3725 42.7789 44.1224 42.7789C47.8716 42.7781 50.9465 45.8299 50.9465 49.5826C50.9473 53.3337 47.8716 56.4047 44.1228 56.4043ZM44.1228 39.94C38.8009 39.94 34.4836 44.2561 34.4836 49.5826C34.4836 54.9075 38.8006 59.2429 44.1224 59.2429C49.4516 59.2429 53.7843 54.9075 53.7843 49.5826C53.7847 44.2561 49.4516 39.94 44.1228 39.94Z" fill="#1A1A18"/>
<path fill-rule="evenodd" clip-rule="evenodd" d="M66.2605 92.015C62.5101 92.015 59.443 88.9436 59.443 85.1925C59.4441 81.4398 62.5101 78.3696 66.2601 78.3696C70.0174 78.3696 73.0692 81.4406 73.0692 85.1925C73.0696 88.9436 70.0174 92.015 66.2605 92.015ZM66.2605 75.531C60.9386 75.531 56.606 79.8652 56.606 85.1925C56.6063 90.5182 60.9382 94.8517 66.2601 94.8517C71.5904 94.8517 75.9066 90.5186 75.9066 85.1925C75.9066 79.8649 71.5893 75.5314 66.2605 75.531Z" fill="#1A1A18"/>
<path fill-rule="evenodd" clip-rule="evenodd" d="M85.4464 55.6276C82.9227 55.6276 80.7985 52.4981 80.7985 48.8039C80.7989 45.1109 82.9228 42.0003 85.4457 42.0003C87.9536 42.0003 90.0924 45.1113 90.0924 48.8039C90.0932 52.4973 87.9528 55.6276 85.4464 55.6276ZM85.4464 39.1625C81.3054 39.1625 77.9465 43.4975 77.9465 48.8039C77.9469 54.13 81.3051 58.465 85.4457 58.465C89.5713 58.465 92.9298 54.1304 92.9298 48.8039C92.9298 43.4975 89.5713 39.1625 85.4464 39.1625Z" fill="#1A1A18"/>
<path fill-rule="evenodd" clip-rule="evenodd" d="M29.2307 89.8766C28.3035 90.596 27.0149 90.7514 25.6189 90.3427C24.0481 89.8766 22.5444 88.8074 21.4017 87.2917C20.2366 85.7741 19.5919 84.0644 19.5538 82.4321C19.5311 80.9541 20.0211 79.7502 20.949 79.0493C21.5406 78.602 22.2757 78.3696 23.089 78.3696C23.557 78.3696 24.0624 78.4466 24.5685 78.602C26.1258 79.0493 27.6207 80.1385 28.7861 81.6354C31.0258 84.5894 31.2321 88.3597 29.2307 89.8766ZM31.0404 79.9249C29.522 77.942 27.5056 76.5036 25.3656 75.8809C23.0505 75.2004 20.8728 75.5314 19.2236 76.795C17.5678 78.0586 16.6779 80.0808 16.716 82.4709C16.7549 84.706 17.629 87.04 19.1473 89.021C20.6584 91.0043 22.6822 92.4426 24.8218 93.0639C25.5962 93.2975 26.3555 93.3949 27.0992 93.3949C28.534 93.3949 29.8523 92.9669 30.9407 92.1313C32.5977 90.8677 33.4329 88.8462 33.4329 86.5912C33.4336 84.4146 32.6358 82.0041 31.0404 79.9249Z" fill="#1A1A18"/>
<path fill-rule="evenodd" clip-rule="evenodd" d="M36.079 21.0662C32.4823 22.6022 29.1156 22.1354 28.5175 20.6967C27.9125 19.2591 29.9131 16.5179 33.4945 14.9818C35.0433 14.321 36.5382 14.0492 37.8041 14.0492C39.4761 14.0492 40.725 14.555 41.0553 15.3713C41.6761 16.8089 39.6747 19.5505 36.0787 21.0662H36.079ZM43.6779 14.2625C42.3366 11.0945 37.3823 10.2596 32.3829 12.3777C27.4063 14.4961 24.5458 18.6364 25.9107 21.8051C26.7466 23.7881 29.0009 24.8565 31.8002 24.8565C33.4722 24.8565 35.3196 24.4674 37.1829 23.6899C42.183 21.5715 45.0196 17.432 43.6779 14.2625Z" fill="#1A1A18"/>
<path fill-rule="evenodd" clip-rule="evenodd" d="M86.4813 20.4442C85.9747 21.3194 83.2678 21.4745 80.2007 19.686C77.1265 17.9174 75.9064 15.5068 76.4122 14.6331C76.9337 13.7571 79.6179 13.622 82.6847 15.3902C85.7596 17.1592 86.9866 19.5701 86.4813 20.4442ZM84.1038 12.9215C79.8477 10.4529 75.4769 10.5899 73.9589 13.2129C73.6295 13.796 73.4524 14.438 73.4524 15.1185C73.4532 17.4894 75.4542 20.2306 78.7819 22.1546C80.8218 23.3409 82.8995 23.9236 84.6477 23.9236C86.5733 23.9236 88.129 23.2246 88.9268 21.8629C90.4456 19.2391 88.3822 15.3902 84.1038 12.9215Z" fill="#1A1A18"/>
</svg>
