<svg width="19" height="18" viewBox="0 0 19 18" fill="none" xmlns="http://www.w3.org/2000/svg">
<path fill-rule="evenodd" clip-rule="evenodd" d="M13.728 0H5.72803C2.9666 0 0.728027 2.23858 0.728027 5V13C0.728027 15.7614 2.9666 18 5.72803 18H13.728C16.4895 18 18.728 15.7614 18.728 13V5C18.728 2.23858 16.4895 0 13.728 0ZM16.978 12.9999C16.9725 14.7926 15.5207 16.2444 13.728 16.2499H5.72803C3.93538 16.2444 2.48352 14.7926 2.47803 12.9999V4.99992C2.48352 3.20728 3.93538 1.75541 5.72803 1.74992H13.728C15.5207 1.75541 16.9725 3.20728 16.978 4.99992V12.9999ZM14.478 5.25002C15.0303 5.25002 15.478 4.80231 15.478 4.25003C15.478 3.69774 15.0303 3.25003 14.478 3.25003C13.9257 3.25003 13.478 3.69774 13.478 4.25003C13.478 4.80231 13.9257 5.25002 14.478 5.25002ZM9.72802 4.50009C7.24274 4.50009 5.22803 6.51481 5.22803 9.00009C5.22803 11.4854 7.24274 13.5001 9.72802 13.5001C12.2133 13.5001 14.228 11.4854 14.228 9.00009C14.2307 7.8058 13.7574 6.65966 12.9129 5.81517C12.0684 4.97068 10.9223 4.49743 9.72802 4.50009ZM6.97803 9C6.97803 10.5188 8.20924 11.75 9.72803 11.75C11.2468 11.75 12.478 10.5188 12.478 9C12.478 7.48122 11.2468 6.25 9.72803 6.25C8.20924 6.25 6.97803 7.48122 6.97803 9Z" fill="#333333"/>
</svg>
