<svg width="112" height="117" viewBox="0 0 112 117" fill="none" xmlns="http://www.w3.org/2000/svg">
<path fill-rule="evenodd" clip-rule="evenodd" d="M78.3341 51.7221L78.8783 48.4482C78.9253 48.2142 79.0546 48.0202 79.269 47.9036L91.7225 41.2592C91.8375 41.2011 91.9522 41.1623 92.0673 41.1623C92.3441 41.1623 92.6193 41.2985 92.7497 41.5718L95.2269 46.2274C95.4259 46.5776 95.2877 47.0461 94.912 47.2404L82.4443 53.904C82.2523 54.0199 81.999 54.0198 81.8077 53.9232L78.7636 52.5396C78.4565 52.4041 78.2798 52.0719 78.3341 51.7221ZM65.5211 113.109C69.9755 98.6923 72.3375 81.9189 72.3375 64.3656C72.3375 61.8908 72.2991 59.4168 72.199 56.9619L76.7168 54.546C76.9693 54.78 77.2676 54.9755 77.5978 55.131L80.6192 56.4939C81.1022 56.7091 81.5926 56.8265 82.0987 56.8265C82.6972 56.8265 83.2645 56.6894 83.7934 56.3973L96.2618 49.7341C97.995 48.8185 98.677 46.6365 97.7186 44.8834L95.25 40.2277C94.3151 38.473 92.1281 37.8114 90.3727 38.7463L77.9277 45.4087C76.9535 45.9353 76.2557 46.8902 76.0794 48.0006L75.5279 51.2737C75.4886 51.5065 75.4732 51.7405 75.4886 51.9749V51.9934L72.0462 53.8259V53.8055C71.1267 37.0509 67.9894 21.3497 63.0051 8.39323C88.9162 11.8618 108.945 34.1096 108.945 60.9371C108.945 86.9063 90.1806 108.57 65.5208 113.109H65.5211ZM55.9132 113.985C53.8117 113.985 51.7641 113.849 49.7399 113.616C45.7994 101.459 43.4443 87.4705 42.8004 72.6654V72.6442L46.8725 70.4823C48.5133 75.2942 52.0173 78.6265 56.051 78.6265C61.6565 78.6261 66.2189 72.2358 66.2189 64.3656C66.2189 62.9824 66.0654 61.658 65.8121 60.372L65.8129 60.3509L69.4162 58.4422C69.4705 60.4102 69.4932 62.3777 69.4932 64.3656C69.4932 82.1714 67.0542 99.1611 62.3847 113.576C60.2609 113.849 58.0982 113.986 55.9132 113.985ZM33.4919 76.5612L32.9472 79.8332C32.9084 80.0672 32.7706 80.2627 32.5554 80.3793L20.1035 87.0421C19.9272 87.1203 19.7194 87.1595 19.5427 87.1014C19.3437 87.0229 19.1901 86.9063 19.0751 86.7111L16.5991 82.0547C16.499 81.8792 16.4836 81.6845 16.5371 81.4901C16.5991 81.295 16.7365 81.1399 16.8897 81.0417L29.3585 74.3789C29.5737 74.2815 29.8258 74.2815 30.0255 74.3597L33.0619 75.7426C33.3695 75.8792 33.5446 76.2102 33.4919 76.5612ZM2.88011 60.9367C2.88011 34.0129 23.0698 11.6859 49.111 8.35435C43.0767 23.9785 39.779 43.6367 39.779 64.3656C39.7798 66.5857 39.8175 68.7876 39.9018 70.9699L34.9717 73.6188C34.757 73.4236 34.503 73.2878 34.2505 73.1523L31.2064 71.7871C30.1945 71.321 29.0052 71.3602 28.0314 71.8852L15.5637 78.5488C14.7278 78.9968 14.1058 79.7358 13.8298 80.6711C13.5392 81.5879 13.6385 82.542 14.1058 83.3992L16.576 88.0548C17.0275 88.9123 17.7868 89.5166 18.699 89.8087C19.0524 89.9057 19.4049 89.9646 19.7575 89.9646C20.3402 89.9642 20.9002 89.8087 21.4521 89.537L33.8979 82.873C34.8717 82.3669 35.5768 81.3931 35.7454 80.2823L36.2977 77.0096C36.3369 76.7167 36.3516 76.4057 36.3131 76.1136L40.0323 74.1445C40.7378 88.1722 42.9767 101.459 46.6039 113.168C21.7828 108.746 2.88011 87.0229 2.88011 60.9367ZM48.8428 66.2162C48.7669 65.6119 48.7277 64.9888 48.7277 64.3656C48.7284 58.1705 52.0939 52.9298 56.051 52.9298C58.7741 52.9291 61.2116 55.3839 62.4767 58.9295L48.8428 66.2162ZM63.1826 61.775C63.313 62.6113 63.3739 63.4692 63.3739 64.3656C63.3742 70.5608 60.023 75.8011 56.051 75.8011C53.1685 75.8011 50.614 73.0149 49.4255 69.1186L63.1826 61.775ZM52.2937 8.04377C52.4861 7.5361 52.6767 7.04922 52.8914 6.56233C53.0916 6.0743 53.3055 5.60741 53.5203 5.12053C53.5742 4.98389 53.635 4.84765 53.712 4.69138C54.1958 3.58175 55.0922 2.91858 56.051 2.91858C57.0251 2.91858 57.8988 3.58175 58.4046 4.71217C58.4665 4.84765 58.5196 4.98389 58.5812 5.12053C58.796 5.60703 59.0108 6.09506 59.2251 6.60119C59.4172 7.08769 59.6316 7.57535 59.831 8.06223C65.1686 21.3293 68.4428 37.7141 69.278 55.2869V55.3058L64.9919 57.5847C63.2746 53.1238 59.9079 50.104 56.051 50.104C50.4612 50.104 45.898 56.4939 45.898 64.3656C45.8984 65.4949 45.975 66.5861 46.1743 67.638L42.7003 69.4893C42.6472 67.7746 42.6241 66.0799 42.6241 64.3656C42.6249 43.3638 46.0361 23.5505 52.2937 8.04377ZM61.7947 5.37339C61.5264 4.74987 61.2727 4.14638 60.9968 3.54287C60.5137 2.47096 59.8079 1.61304 58.9492 1.00992C58.0982 0.406032 57.1013 0.0746461 56.051 0.0746461C53.9653 0.0742612 52.0785 1.39981 51.1201 3.54287C50.8438 4.12713 50.5759 4.73064 50.3227 5.33491C22.1276 8.13998 0.0354004 32.0058 0.0354004 60.9371C0.0354004 91.7566 25.0944 116.831 55.9128 116.831C86.7316 116.83 111.79 91.7566 111.79 60.9371C111.79 32.1224 89.8673 8.3355 61.7947 5.37339Z" fill="#1A1A18"/>
</svg>
