<svg width="139" height="139" viewBox="0 0 139 139" fill="none" xmlns="http://www.w3.org/2000/svg">
<g clip-path="url(#clip0_291_169)">
<path d="M69.4796 125.15C99.8392 125.15 124.45 100.538 124.45 70.1787C124.45 39.8191 99.8392 15.2078 69.4796 15.2078C39.1201 15.2078 14.5088 39.8191 14.5088 70.1787C14.5088 100.538 39.1201 125.15 69.4796 125.15Z" fill="#1A1A18" stroke="#1A1A18" stroke-width="0.00125333" stroke-miterlimit="22.9256"/>
<path fill-rule="evenodd" clip-rule="evenodd" d="M69.4792 19.1346C97.6702 19.1346 120.523 41.9879 120.523 70.179C120.523 98.37 97.6702 121.223 69.4792 121.223C41.2883 121.223 18.4351 98.37 18.4351 70.179C18.4351 41.9879 41.2883 19.1346 69.4792 19.1346" fill="white"/>
<path fill-rule="evenodd" clip-rule="evenodd" d="M0.153809 89.5924C0.153809 92.7982 0.573156 94.7772 1.79351 97.5479C3.05761 100.417 5.27469 102.902 7.75865 104.704C8.53545 105.268 9.60606 105.894 10.5705 106.322C13.2811 107.528 15.3715 107.963 18.5245 107.963C24.7065 107.963 30.1973 104.222 32.911 100.122C41.0607 87.8092 32.2304 72.0826 18.0324 72.0826C12.555 72.0826 8.16453 74.6047 5.51451 77.2386C2.45281 80.2817 0.153809 84.8468 0.153809 89.5924" fill="#010005"/>
<path fill-rule="evenodd" clip-rule="evenodd" d="M23.9117 74.107L23.8959 82.8879C27.966 83.5985 30.8856 88.9297 28.867 93.128C27.4051 96.1683 24.3487 97.9968 20.9772 97.466C19.8817 97.2935 20.7515 97.7105 18.6148 99.113C16.8851 100.248 14.2809 100.76 11.9913 99.8994C7.5245 98.2197 5.80819 93.0841 8.01007 89.2504C9.04547 87.448 10.3192 86.4181 12.6811 85.6358L12.6805 73.9635C9.45481 74.7361 5.91729 77.7931 4.03455 80.5147C-3.37347 91.222 4.1025 106.857 17.7863 107.001C32.2151 107.152 40.691 90.3845 30.7917 78.804C29.2888 77.046 26.1788 74.6674 23.9117 74.107" fill="white"/>
<path fill-rule="evenodd" clip-rule="evenodd" d="M17.7248 96.1227C16.2132 95.4121 14.6082 92.4829 14.6082 90.3306L14.6662 89.0178C14.2458 89.018 13.7468 89.072 13.4015 88.8901C12.9139 88.6335 13.1503 88.4032 12.49 88.7211C11.8442 89.032 11.2511 89.5491 10.8602 90.0461C9.96043 91.1896 9.60361 92.9834 10.2321 94.6063C11.0581 96.7393 13.5912 98.0209 15.8858 97.2882C16.4418 97.1108 16.8856 96.883 17.3407 96.5312C17.3751 96.5045 17.4928 96.4165 17.5238 96.3864C17.71 96.2058 17.6074 96.348 17.7248 96.1227Z" fill="white"/>
<path fill-rule="evenodd" clip-rule="evenodd" d="M16.3921 73.1278L16.3503 85.1893C17.0392 84.8116 17.175 83.858 20.2265 82.8471V73.2098C19.0761 72.9558 17.5811 73.0691 16.3921 73.1278" fill="white"/>
<path fill-rule="evenodd" clip-rule="evenodd" d="M18.8628 86.8245C19.7883 87.4813 20.7676 88.5387 21.346 89.8856C22.0581 91.544 22.0799 92.826 21.7639 94.7029C24.2546 94.8369 26.1296 93.0969 26.5719 91.0727C27.1296 88.52 25.3984 86.2784 23.6041 85.7529C23.136 86.2479 22.9205 86.2308 22.0509 86.2307C20.7226 86.2305 21.083 86.1539 20.4978 85.7632C19.8734 85.9091 19.1136 86.4314 18.8628 86.8245" fill="white"/>
<path fill-rule="evenodd" clip-rule="evenodd" d="M16.3511 86.6786L16.3527 87.5422C16.7597 87.8548 18.0823 88.1262 19.1652 89.7722C21.6082 93.4853 19.0176 98.4984 14.4227 98.4521C8.99581 98.3973 7.05698 91.4319 11.1305 88.4311C12.7362 87.2482 12.6874 88.1855 12.6747 86.6755C11.2123 86.9973 9.86725 88.2217 9.24564 89.0875C6.2147 93.3085 9.16483 99.278 14.4234 99.371C19.4496 99.46 22.8995 93.8245 19.8862 89.2147C19.2546 88.2485 17.8738 87.0094 16.3511 86.6786Z" fill="white"/>
<path fill-rule="evenodd" clip-rule="evenodd" d="M13.6446 73.7639V86.2299C13.6446 86.6952 13.4914 87.6449 13.7934 87.9316C13.9059 88.0385 15.2587 88.3596 15.3811 87.6941C15.3991 87.5963 15.3911 87.3295 15.39 87.2172L15.3878 73.2919C15.0033 73.3161 13.8465 73.4828 13.6446 73.7639Z" fill="white"/>
<path fill-rule="evenodd" clip-rule="evenodd" d="M21.7229 85.2663C23.2208 85.2663 22.933 85.5447 22.933 82.7853V73.774L21.198 73.3201L21.1894 84.1797C21.1852 84.8115 21.0125 85.2663 21.7229 85.2663" fill="white"/>
<path fill-rule="evenodd" clip-rule="evenodd" d="M23.8984 84.8461C25.1428 85.1631 26.1335 86.1572 26.794 87.1478C28.326 89.4448 27.7517 92.6813 25.4826 94.5002C24.3856 95.3795 23.2224 95.6684 21.4769 95.6589C21.1701 96.1075 21.0917 96.3649 21.1489 96.515C22.9167 96.83 24.8889 96.1315 25.941 95.2871C28.6991 93.0735 29.3898 89.4344 27.5166 86.5871C26.861 85.5907 25.5128 84.1992 23.8963 83.8923L23.8984 84.8461V84.8461Z" fill="white"/>
<path fill-rule="evenodd" clip-rule="evenodd" d="M18.3861 95.4003L18.7823 94.6865L18.3577 94.2711C16.4365 92.5056 16.3727 90.9502 16.6064 88.7708L16.158 88.5547C14.6187 89.1796 16.0606 94.4394 18.3861 95.4003" fill="white"/>
<path fill-rule="evenodd" clip-rule="evenodd" d="M19.068 93.5806C19.4123 91.9005 18.325 89.6939 17.4784 89.413C17.3277 91.0283 17.9299 92.9024 19.068 93.5806Z" fill="white"/>
<path fill-rule="evenodd" clip-rule="evenodd" d="M17.1401 85.8968C17.4593 86.0124 17.7252 86.1841 18.0632 86.2467C18.9536 85.0656 20.1613 85.0307 20.2265 84.6717L20.22 83.8872C19.083 84.1368 17.4807 85.249 17.1401 85.8968" fill="white"/>
<path fill-rule="evenodd" clip-rule="evenodd" d="M48.7536 2.23132C58.6576 2.23132 66.6864 10.2601 66.6864 20.1641C66.6864 30.0679 58.6576 38.0967 48.7536 38.0967C38.8497 38.0967 30.821 30.0679 30.821 20.1641C30.821 10.2601 38.8497 2.23132 48.7536 2.23132" fill="white"/>
<path fill-rule="evenodd" clip-rule="evenodd" d="M61.011 31.9797V31.9808C57.7717 35.3392 53.4169 37.1897 48.7523 37.1897C40.8974 37.1897 34.2634 31.8392 32.3114 24.5894L39.7061 24.5891C39.9572 24.5891 40.1589 24.3856 40.1589 24.1344C40.1591 23.8821 39.957 23.6781 39.7058 23.6781L32.0924 23.678C31.8535 22.5444 31.728 21.368 31.728 20.1642C31.7281 19.7907 31.7402 19.4197 31.7648 19.0521C32.72 19.4554 33.3673 19.6927 33.6997 19.7619C34.2044 19.8667 34.6203 19.8185 35.0216 19.7699C35.6789 19.6938 36.3533 19.6144 37.6358 20.2159C38.6229 20.6767 40.7176 22.1263 42.7459 23.5284C45.0451 25.1173 47.423 26.7615 48.575 27.2511C49.2422 27.5355 50.5369 27.6797 52.0311 27.7431L52.7203 29.3123L53.3948 27.7784C53.6017 27.781 53.8108 27.7823 54.02 27.7835L54.6922 29.3123L55.3666 27.774C55.5733 27.7705 55.7776 27.7675 55.9795 27.7625L56.6614 29.3123L57.3581 27.7233C57.5549 27.7165 57.7443 27.7085 57.9266 27.7016L57.9216 27.7027L58.6306 29.3123L59.3668 27.6348C59.8564 27.6082 60.169 27.5888 60.2356 27.5838V27.5782C60.654 27.5423 60.9838 27.3469 61.1735 27.015C61.8013 25.9202 60.6195 23.8431 60.4842 23.6091C59.9034 22.617 58.7758 22.3553 57.4712 22.0524C56.6589 21.8634 55.7383 21.6502 54.7906 21.2299C53.5328 20.6698 50.8717 16.7212 47.8489 10.9257C47.4501 10.1584 46.5762 9.74502 45.7296 9.92109C40.2942 11.0477 37.0499 11.0193 36.0899 9.83485C35.9323 9.64 35.8339 9.40846 35.7847 9.14677C38.9084 5.47371 43.5633 3.1395 48.7523 3.1395C58.1407 3.1395 65.779 10.776 65.779 20.1642C65.779 24.5952 64.0855 28.7915 61.011 31.9797V31.9797ZM31.9421 17.4748C32.688 17.7789 33.3429 18.021 33.6997 18.0947C34.1625 18.1891 34.6327 18.0682 35.1249 17.8896C35.2703 17.8366 35.4179 17.779 35.568 17.7203C36.5281 17.3432 37.5202 16.954 38.6844 17.5001C39.5756 17.9161 41.3675 19.3679 43.1989 20.8769C43.3936 21.0396 43.5903 21.2022 43.7848 21.3633C46.1062 23.2818 48.2994 25.0942 49.4539 25.5848C50.8004 26.1564 54.5493 26.1842 57.3432 26.1128C58.771 26.0768 59.9475 26.0158 60.4301 25.9883C60.4645 26.2394 60.4496 26.4412 60.3808 26.562C60.3637 26.5954 60.3191 26.6751 60.0902 26.6751L60.0904 26.6808C59.7901 26.6992 59.4356 26.7201 59.0367 26.7407C55.9572 26.8964 50.3891 27.0319 48.932 26.4124C47.8636 25.9585 45.5252 24.3419 43.263 22.7796C41.1117 21.2908 39.0757 19.8841 38.0223 19.3898C36.5059 18.6788 35.6247 18.7814 34.9158 18.8656C34.5564 18.9069 34.2461 18.944 33.8844 18.869C33.584 18.8066 32.8776 18.5383 31.8535 18.0981C31.8781 17.8883 31.9078 17.6812 31.9421 17.4748V17.4748ZM32.6339 14.6854L46.4631 13.6438C46.5862 13.8672 46.714 14.0966 46.847 14.3294L38.9109 16.6048C37.4611 15.9988 36.2302 16.4816 35.2333 16.8721C34.6891 17.0853 34.2166 17.272 33.8844 17.203C33.5644 17.1359 32.8923 16.8813 32.112 16.5589C32.2499 15.9205 32.4246 15.295 32.6339 14.6854V14.6854ZM46.9111 12.5723C46.5862 11.986 46.2611 11.3936 45.946 10.8072C46.3866 10.7299 46.8322 10.9476 47.0415 11.3477C47.1868 11.6263 47.3418 11.9202 47.5042 12.2255L46.9111 12.5723ZM47.7111 14.0021C47.5929 13.7925 47.4747 13.5803 47.3541 13.3673L47.9351 13.0286C48.0507 13.2382 48.1664 13.4514 48.2872 13.668L47.7111 14.0021V14.0021ZM48.5308 15.4238C48.4076 15.2154 48.2847 15.0022 48.159 14.7845L48.7278 14.4597C48.8482 14.6716 48.9689 14.8847 49.0894 15.0979L48.5308 15.4238V15.4238ZM46.4926 22.0972L49.2053 18.2996C49.3529 18.5312 49.4981 18.7526 49.6359 18.9588L49.3234 23.1457L49.2299 24.4339C48.4914 23.98 47.4672 23.1918 46.3546 22.2918L46.4926 22.0972V22.0972ZM42.6403 19.2434C41.6532 18.439 40.7448 17.7282 40.0161 17.2352L47.3098 15.144C47.4551 15.3986 47.6051 15.6544 47.7529 15.909L42.6403 19.2434ZM48.2157 16.6947C48.3731 16.9563 48.5283 17.2145 48.6808 17.4655L45.6458 21.7162C45.225 21.3702 44.7941 21.0144 44.3657 20.6616C44.036 20.3875 43.7061 20.1157 43.3811 19.8483L48.2157 16.6947V16.6947ZM49.3702 16.8341C49.2471 16.6325 49.1215 16.4242 48.9935 16.2085L49.5499 15.8847C49.673 16.0944 49.7984 16.303 49.924 16.5106L49.3702 16.8341ZM50.2391 18.2259C50.116 18.0346 49.9854 17.8284 49.8477 17.6107L50.4042 17.2869C50.5319 17.4944 50.6624 17.7006 50.7955 17.9035L50.2391 18.2259ZM53.2028 21.2353H53.3309C53.7221 21.6282 54.0914 21.9154 54.4212 22.0628C55.4478 22.5178 56.4128 22.7424 57.2645 22.9395C58.4534 23.2159 59.3149 23.4155 59.6965 24.0699C59.8959 24.4085 60.0608 24.759 60.1863 25.0899C58.9161 25.1598 56.8976 25.2358 54.9505 25.2279C52.9837 25.2196 51.0883 25.1252 50.1136 24.8501L50.2146 23.4741L50.4656 20.0891C50.6773 20.3436 50.8595 20.5202 50.9997 20.5962C52.1493 21.2272 53.1609 21.2354 53.2028 21.2353V21.2353ZM51.4379 19.7974C51.305 19.7182 51.0638 19.4299 50.7485 18.983L51.3002 18.6638C51.6767 19.219 52.0508 19.7352 52.415 20.1926C52.1296 20.1157 51.7924 19.9922 51.4379 19.7974V19.7974ZM35.1102 9.98917C35.1842 10.1353 35.2726 10.2761 35.3809 10.4084C36.5625 11.8613 39.546 12.0495 45.0106 10.9937L45.0649 11.0918C45.2814 11.4973 45.5991 12.0827 45.9757 12.7671L32.9833 13.7465C33.5349 12.3996 34.2511 11.139 35.1102 9.98917V9.98917ZM48.7523 2.22791C43.7011 2.22791 39.13 4.32724 35.866 7.70092C35.5067 8.07418 35.1594 8.46239 34.8345 8.86593C33.1238 10.9685 31.8781 13.4653 31.2602 16.1968C31.1914 16.4987 31.1297 16.8042 31.0781 17.113C31.0414 17.3135 31.0117 17.5152 30.9821 17.7179C30.9403 18.0326 30.9057 18.3494 30.8788 18.6696C30.8369 19.1628 30.8171 19.6605 30.8171 20.1642C30.8174 21.5225 30.9699 22.845 31.2579 24.1182V24.1192C31.2752 24.1967 31.2923 24.2724 31.3095 24.3488C31.3095 24.35 31.3095 24.351 31.312 24.351C33.2026 32.2285 40.3042 38.0999 48.7523 38.0999C53.6681 38.0998 58.2539 36.1517 61.6657 32.6121C64.9053 29.2523 66.6899 24.8329 66.6899 20.1642C66.69 10.2737 58.6428 2.22803 48.7523 2.22791" fill="#1A1A18"/>
<path fill-rule="evenodd" clip-rule="evenodd" d="M43.4995 26.3664C43.4995 26.6177 43.295 26.8219 43.0441 26.8219H35.0514C34.8002 26.8219 34.5957 26.6179 34.5957 26.3664C34.5958 26.1154 34.8002 25.9115 35.0512 25.9115H43.0441C43.2951 25.9115 43.4994 26.1156 43.4995 26.3664" fill="#1A1A18"/>
<path fill-rule="evenodd" clip-rule="evenodd" d="M18.0913 30.444C27.9973 30.444 36.0275 38.4743 36.0275 48.3802C36.0275 58.2861 27.9973 66.3163 18.0913 66.3163C8.1854 66.3163 0.155273 58.2861 0.155273 48.3802C0.155273 38.4743 8.1854 30.444 18.0913 30.444" fill="white"/>
<path fill-rule="evenodd" clip-rule="evenodd" d="M18.0901 65.6748C8.62294 65.6748 0.918141 57.9725 0.918141 48.5029C0.918141 39.6436 7.66044 32.3305 16.2834 31.427L7.58656 53.0617C7.54233 53.17 7.54714 53.2931 7.59879 53.3966C7.65056 53.5024 7.74397 53.5812 7.85739 53.6106L22.8631 57.8077C22.8903 58.2606 22.9123 58.7136 22.9272 59.1616C18.0508 60.2964 13.1006 60.124 13.0266 60.119C12.7928 60.1166 12.6082 60.2889 12.5983 60.5154C12.5909 60.7417 12.7656 60.9339 12.9947 60.9438C13.0045 60.9438 13.2974 60.956 13.8046 60.956L13.7283 62.2875C13.9301 62.2926 14.1393 62.2632 14.3485 62.1992C14.9984 61.9898 15.4512 61.4779 15.5472 60.924C16.6501 60.8821 18.0286 60.7935 19.5178 60.6043C24.3351 59.9936 27.9562 58.7064 30.2822 56.7762C30.4595 56.6338 30.4818 56.3726 30.3366 56.1977C30.1914 56.0229 29.9328 55.9987 29.758 56.1436C28.1531 57.4757 25.9869 58.364 23.7444 58.9572C23.6189 55.7426 23.2472 52.4143 22.7499 49.1997V49.1972C23.4859 48.5546 23.7395 48.0897 23.6041 47.6612C23.4417 47.1566 22.8164 47.0482 22.3905 47.0063C21.236 40.3798 19.6532 34.4696 18.7523 31.3433C27.9169 31.6927 35.2646 39.2548 35.2646 48.5029C35.2646 57.9725 27.5598 65.6749 18.0901 65.6748V65.6748ZM14.1787 37.5316L14.3633 37.1648L14.41 37.1871L14.255 37.571L14.1787 37.5316ZM22.5358 47.8603C22.6736 47.8826 22.7499 47.9074 22.7941 47.9271C22.7697 47.9761 22.7154 48.0672 22.5924 48.2052C22.5727 48.0897 22.5528 47.9761 22.5358 47.8603ZM22.809 56.9362L9.89062 53.3229C13.0069 52.7835 19.1757 51.5404 21.9991 49.7558C22.3561 52.1237 22.6416 54.5485 22.809 56.9362ZM21.4772 44.306L21.6225 44.3798L21.5265 44.5668C21.5093 44.4781 21.4921 44.3921 21.4772 44.306ZM21.8614 48.8573C19.0699 50.8955 11.0524 52.3062 8.618 52.6999L13.2827 41.0933L21.2015 45.0912C21.4354 46.3171 21.6593 47.5775 21.8614 48.8573V48.8573ZM20.7462 40.8179L20.8422 40.8647L20.7832 40.9829C20.7709 40.9262 20.7584 40.8746 20.7462 40.8179V40.8179ZM21.0022 44.0669L13.5928 40.3255L14.4717 38.1395L20.3794 41.0933V41.096C20.5912 42.0536 20.8003 43.0457 21.0022 44.0669ZM17.1991 31.3531L17.3861 30.8854L17.5758 30.4179L17.6002 30.3535C17.6052 30.3733 17.6126 30.393 17.6174 30.4153C17.6619 30.5555 17.706 30.7082 17.7553 30.8732C17.7972 31.0184 17.8414 31.1709 17.8884 31.3334C18.4471 33.2458 19.2963 36.3379 20.1456 40.0547L14.7793 37.3716L17.1991 31.3531V31.3531ZM18.4792 30.415C18.2158 29.5267 18.0532 29.0219 18.0433 28.995C17.9918 28.8299 17.839 28.7169 17.6668 28.7095C17.492 28.7118 17.3344 28.8079 17.2705 28.9678L16.6697 30.4645C7.35774 31.1931 0 39.0038 0 48.5029C0 58.4798 8.11587 66.5954 18.0901 66.5954C28.0669 66.5954 36.1828 58.4799 36.1828 48.5029C36.1829 38.6567 28.2784 30.6219 18.4792 30.415" fill="#1A1A18"/>
<path fill-rule="evenodd" clip-rule="evenodd" d="M20.8422 40.8648L20.7832 40.9829C20.7709 40.9262 20.7584 40.8747 20.7461 40.818L20.8422 40.8648V40.8648Z" fill="#1A1A18"/>
<path fill-rule="evenodd" clip-rule="evenodd" d="M14.41 37.1872L14.2549 37.571L14.1787 37.5316L14.3633 37.1648L14.41 37.1872Z" fill="#1A1A18"/>
<path fill-rule="evenodd" clip-rule="evenodd" d="M21.6225 44.3798L21.5263 44.5669C21.5092 44.4781 21.492 44.3921 21.4771 44.306L21.6224 44.3798H21.6225Z" fill="#1A1A18"/>
<path fill-rule="evenodd" clip-rule="evenodd" d="M22.7942 47.9271C22.7697 47.9761 22.7154 48.0671 22.5924 48.2052C22.5727 48.0897 22.5528 47.9761 22.5356 47.8605C22.6735 47.8826 22.7499 47.9074 22.7942 47.9271" fill="#1A1A18"/>
<path fill-rule="evenodd" clip-rule="evenodd" d="M90.177 2.22766C100.083 2.22766 108.113 10.2579 108.113 20.1639C108.113 30.0697 100.083 38.0999 90.177 38.0999C80.2712 38.0999 72.241 30.0697 72.241 20.1639C72.241 10.2579 80.2712 2.22766 90.177 2.22766" fill="white"/>
<path fill-rule="evenodd" clip-rule="evenodd" d="M81.6123 30.7779C81.3146 31.0088 80.901 31.0587 80.4528 30.9275C79.9486 30.7779 79.4659 30.4346 79.099 29.9481C78.725 29.4609 78.5181 28.9121 78.5058 28.3881C78.4985 27.9136 78.6558 27.5271 78.9537 27.3021C79.1436 27.1586 79.3796 27.0839 79.6407 27.0839C79.7909 27.0839 79.9532 27.1087 80.1156 27.1586C80.6155 27.3021 81.0954 27.6518 81.4696 28.1323C82.1885 29.0806 82.2548 30.291 81.6123 30.7779V30.7779ZM82.1932 27.5832C81.7058 26.9467 81.0585 26.4849 80.3715 26.285C79.6283 26.0666 78.9293 26.1728 78.3998 26.5785C77.8683 26.9841 77.5826 27.6333 77.5949 28.4006C77.6073 29.118 77.8879 29.8673 78.3754 30.5032C78.8604 31.1399 79.5101 31.6016 80.1969 31.801C80.4455 31.876 80.6893 31.9073 80.928 31.9073C81.3886 31.9073 81.8118 31.7699 82.1612 31.5017C82.6931 31.096 82.9612 30.4471 82.9612 29.7232C82.9615 29.0245 82.7054 28.2507 82.1932 27.5832" fill="#1A1A18"/>
<path fill-rule="evenodd" clip-rule="evenodd" d="M83.8107 8.6887C82.656 9.18181 81.5753 9.03194 81.3833 8.57009C81.189 8.10861 81.8313 7.22865 82.981 6.73554C83.4782 6.52339 83.9581 6.43616 84.3644 6.43616C84.9012 6.43616 85.3021 6.59851 85.4081 6.86058C85.6074 7.32206 84.9649 8.20214 83.8105 8.6887H83.8107ZM86.25 6.50461C85.8194 5.48763 84.229 5.21963 82.6241 5.89956C81.0266 6.57961 80.1083 7.9087 80.5464 8.92593C80.8148 9.56249 81.5385 9.90548 82.4371 9.90548C82.9738 9.90548 83.5669 9.78056 84.165 9.53098C85.7701 8.85093 86.6807 7.52209 86.25 6.50461Z" fill="#1A1A18"/>
<path fill-rule="evenodd" clip-rule="evenodd" d="M86.3927 20.0328C85.1889 20.0328 84.2091 19.047 84.2091 17.8429C84.2091 16.6382 85.1887 15.6588 86.3925 15.6588C87.5961 15.6585 88.5832 16.6382 88.5832 17.8429C88.5834 19.047 87.5961 20.0329 86.3927 20.0328V20.0328ZM86.3927 14.7474C84.6843 14.7474 83.2983 16.133 83.2983 17.8429C83.2983 19.5523 84.6841 20.944 86.3925 20.944C88.1033 20.944 89.4941 19.5523 89.4941 17.8429C89.4943 16.133 88.1033 14.7474 86.3927 14.7474Z" fill="#1A1A18"/>
<path fill-rule="evenodd" clip-rule="evenodd" d="M93.4994 31.4644C92.2955 31.4644 91.3109 30.4784 91.3109 29.2742C91.3112 28.0696 92.2955 27.084 93.4993 27.084C94.7054 27.084 95.6851 28.0698 95.6851 29.2742C95.6852 30.4784 94.7054 31.4644 93.4994 31.4644ZM93.4994 26.1727C91.791 26.1727 90.4001 27.5641 90.4001 29.2742C90.4003 30.9839 91.7909 32.375 93.4993 32.375C95.2104 32.375 96.596 30.984 96.596 29.2742C96.596 27.564 95.21 26.1729 93.4994 26.1727Z" fill="#1A1A18"/>
<path fill-rule="evenodd" clip-rule="evenodd" d="M99.9906 8.48899C99.828 8.76996 98.959 8.81975 97.9744 8.24559C96.9876 7.67785 96.5959 6.90402 96.7582 6.62355C96.9257 6.34234 97.7873 6.29897 98.7718 6.86658C99.7589 7.43444 100.153 8.2084 99.9906 8.48899V8.48899ZM99.2274 6.0741C97.8611 5.28161 96.458 5.3256 95.9707 6.16763C95.8649 6.35482 95.8081 6.56091 95.8081 6.77935C95.8084 7.54046 96.4507 8.42042 97.519 9.03807C98.1738 9.41887 98.8408 9.60593 99.402 9.60593C100.02 9.60593 100.52 9.38156 100.776 8.94442C101.263 8.10214 100.601 6.86658 99.2274 6.0741" fill="#1A1A18"/>
<path fill-rule="evenodd" clip-rule="evenodd" d="M99.6583 19.7835C98.8482 19.7835 98.1663 18.7789 98.1663 17.593C98.1664 16.4075 98.8482 15.4089 99.6581 15.4089C100.463 15.4089 101.15 16.4076 101.15 17.593C101.15 18.7786 100.463 19.7835 99.6583 19.7835V19.7835ZM99.6583 14.4979C98.329 14.4979 97.2507 15.8895 97.2507 17.593C97.2509 19.3028 98.3289 20.6944 99.6581 20.6944C100.982 20.6944 102.061 19.3029 102.061 17.593C102.061 15.8895 100.982 14.4979 99.6583 14.4979" fill="#1A1A18"/>
<path fill-rule="evenodd" clip-rule="evenodd" d="M107.577 18.5105C107.584 18.5419 107.589 18.5735 107.589 18.6052C107.602 18.5988 107.614 18.5862 107.627 18.5799L107.577 18.5105Z" fill="#1A1A18"/>
<path fill-rule="evenodd" clip-rule="evenodd" d="M107.577 18.5105L107.626 18.579C107.614 18.5851 107.601 18.5977 107.589 18.604C107.589 18.5727 107.584 18.5415 107.577 18.5105ZM74.156 16.8752C74.2497 16.264 74.4808 15.6963 74.7861 15.3094C75.0101 15.0284 75.2613 14.8663 75.4729 14.8663C75.4975 14.8663 75.5172 14.8724 75.5345 14.8724C75.7659 14.9098 75.9775 15.1409 76.1227 15.5152C76.2411 15.8209 76.3025 16.1952 76.3025 16.5947C76.3025 16.7882 76.2903 16.9938 76.2581 17.1939C76.1646 17.8055 75.9358 18.3795 75.628 18.7601C75.3795 19.0717 75.1112 19.2278 74.8796 19.1967C74.3801 19.1217 73.9689 18.1109 74.156 16.8752ZM106.098 26.1916C106.098 26.0794 106.093 25.9732 106.085 25.8671C106.004 24.8754 105.531 24.5632 105.255 24.4692C104.975 24.3696 104.414 24.3131 103.727 25.0312C103.303 25.4741 102.929 26.1167 102.673 26.8406C102.417 27.564 102.299 28.2946 102.348 28.9062C102.43 29.8981 102.902 30.2101 103.185 30.3103C103.296 30.3472 103.414 30.3663 103.533 30.3663C103.634 30.3663 103.727 30.3535 103.828 30.3287C102.43 32.1946 100.662 33.7671 98.6363 34.9274C98.0997 34.2224 96.6646 34.2224 95.3723 34.6282C93.9816 35.0645 92.7187 35.9943 92.8762 36.974C91.995 37.1115 91.0916 37.1865 90.1734 37.1865C80.7901 37.1865 73.1516 29.5487 73.1516 20.1639C73.1517 19.5088 73.1886 18.8661 73.2647 18.2295C73.4448 19.2402 73.9887 19.9829 74.7417 20.1014C74.8108 20.1078 74.8796 20.114 74.9486 20.114C75.4485 20.1137 75.9358 19.8394 76.3394 19.3278C76.7531 18.8162 77.0384 18.105 77.1566 17.3309C77.2773 16.5573 77.2083 15.796 76.9769 15.1845C76.7013 14.4918 76.2408 14.0612 75.6723 13.9738C75.1036 13.8865 74.5375 14.1611 74.0697 14.7414C74.0502 14.7664 74.0304 14.7849 74.0181 14.81C76.2583 8.03358 82.6558 3.13522 90.1734 3.13522C96.9576 3.1351 102.828 7.12248 105.568 12.8756C104.963 13.3749 104.743 14.6229 105.036 16.0268C105.325 17.4308 106.097 18.7539 107.052 18.7539C107.085 18.7536 107.109 18.7539 107.141 18.7475C107.183 19.2152 107.203 19.6833 107.203 20.1639C107.203 22.2852 106.809 24.3198 106.098 26.1916V26.1916ZM104.906 27.6332C104.426 28.9682 103.683 29.5177 103.483 29.4487C103.414 29.4241 103.291 29.2366 103.259 28.8312C103.222 28.3567 103.321 27.7391 103.533 27.1402C103.747 26.5471 104.052 26.0044 104.382 25.6614C104.626 25.4052 104.82 25.3181 104.913 25.3181C104.926 25.3181 104.938 25.3242 104.95 25.3242C105.024 25.3493 105.145 25.5363 105.174 25.9421C105.219 26.4159 105.118 27.0342 104.906 27.6332V27.6332ZM93.7747 36.7994C93.7994 36.5434 94.3926 35.8884 95.6407 35.4952C96.6894 35.1644 97.4499 35.2456 97.7747 35.389C96.5198 36.0256 95.1778 36.4998 93.7747 36.7994V36.7994ZM105.979 13.8365C106.491 15.1034 106.853 16.4449 107.04 17.8429C106.797 17.8113 106.198 17.144 105.93 15.8396C105.736 14.9098 105.824 14.2049 105.979 13.8365ZM90.1736 2.224C80.2831 2.224 72.241 10.2736 72.241 20.1639C72.241 30.0543 80.2828 38.1037 90.1734 38.1037C100.072 38.1037 108.113 30.0544 108.113 20.1639C108.113 10.2734 100.071 2.22412 90.1736 2.224" fill="#1A1A18"/>
<path fill-rule="evenodd" clip-rule="evenodd" d="M86.3927 20.0328C85.1889 20.0328 84.2091 19.047 84.2091 17.8429C84.2091 16.6382 85.1887 15.6588 86.3925 15.6588C87.5961 15.6585 88.5832 16.6382 88.5832 17.8429C88.5834 19.047 87.5961 20.0329 86.3927 20.0328V20.0328ZM86.3927 14.7474C84.6843 14.7474 83.2983 16.133 83.2983 17.8429C83.2983 19.5523 84.6841 20.944 86.3925 20.944C88.1033 20.944 89.4941 19.5523 89.4941 17.8429C89.4943 16.133 88.1033 14.7474 86.3927 14.7474Z" fill="#1A1A18"/>
<path fill-rule="evenodd" clip-rule="evenodd" d="M93.4994 31.4644C92.2955 31.4644 91.3109 30.4784 91.3109 29.2742C91.3112 28.0696 92.2955 27.084 93.4993 27.084C94.7054 27.084 95.6851 28.0698 95.6851 29.2742C95.6852 30.4784 94.7054 31.4644 93.4994 31.4644ZM93.4994 26.1727C91.791 26.1727 90.4001 27.5641 90.4001 29.2742C90.4003 30.9839 91.7909 32.375 93.4993 32.375C95.2104 32.375 96.596 30.984 96.596 29.2742C96.596 27.564 95.21 26.1729 93.4994 26.1727Z" fill="#1A1A18"/>
<path fill-rule="evenodd" clip-rule="evenodd" d="M99.6583 19.7835C98.8482 19.7835 98.1663 18.7789 98.1663 17.593C98.1664 16.4075 98.8482 15.4089 99.6581 15.4089C100.463 15.4089 101.15 16.4076 101.15 17.593C101.15 18.7786 100.463 19.7835 99.6583 19.7835V19.7835ZM99.6583 14.4979C98.329 14.4979 97.2507 15.8895 97.2507 17.593C97.2509 19.3028 98.3289 20.6944 99.6581 20.6944C100.982 20.6944 102.061 19.3029 102.061 17.593C102.061 15.8895 100.982 14.4979 99.6583 14.4979" fill="#1A1A18"/>
<path fill-rule="evenodd" clip-rule="evenodd" d="M81.6123 30.7779C81.3146 31.0088 80.901 31.0587 80.4528 30.9275C79.9486 30.7779 79.4659 30.4346 79.099 29.9481C78.725 29.4609 78.5181 28.9121 78.5058 28.3881C78.4985 27.9136 78.6558 27.5271 78.9537 27.3021C79.1436 27.1586 79.3796 27.0839 79.6407 27.0839C79.7909 27.0839 79.9532 27.1087 80.1156 27.1586C80.6155 27.3021 81.0954 27.6518 81.4696 28.1323C82.1885 29.0806 82.2548 30.291 81.6123 30.7779V30.7779ZM82.1932 27.5832C81.7058 26.9467 81.0585 26.4849 80.3715 26.285C79.6283 26.0666 78.9293 26.1728 78.3998 26.5785C77.8683 26.9841 77.5826 27.6333 77.5949 28.4006C77.6073 29.118 77.8879 29.8673 78.3754 30.5032C78.8604 31.1399 79.5101 31.6016 80.1969 31.801C80.4455 31.876 80.6893 31.9073 80.928 31.9073C81.3886 31.9073 81.8118 31.7699 82.1612 31.5017C82.6931 31.096 82.9612 30.4471 82.9612 29.7232C82.9615 29.0245 82.7054 28.2507 82.1932 27.5832" fill="#1A1A18"/>
<path fill-rule="evenodd" clip-rule="evenodd" d="M83.8107 8.6887C82.656 9.18181 81.5753 9.03194 81.3833 8.57009C81.189 8.10861 81.8313 7.22865 82.981 6.73554C83.4782 6.52339 83.9581 6.43616 84.3644 6.43616C84.9012 6.43616 85.3021 6.59851 85.4081 6.86058C85.6074 7.32206 84.9649 8.20214 83.8105 8.6887H83.8107ZM86.25 6.50461C85.8194 5.48763 84.229 5.21963 82.6241 5.89956C81.0266 6.57961 80.1083 7.9087 80.5464 8.92593C80.8148 9.56249 81.5385 9.90548 82.4371 9.90548C82.9738 9.90548 83.5669 9.78056 84.165 9.53098C85.7701 8.85093 86.6807 7.52209 86.25 6.50461Z" fill="#1A1A18"/>
<path fill-rule="evenodd" clip-rule="evenodd" d="M107.627 18.5799C107.614 18.5861 107.602 18.5988 107.589 18.6052C107.59 18.5735 107.584 18.5419 107.577 18.5105L107.627 18.5799Z" fill="#1A1A18"/>
<path fill-rule="evenodd" clip-rule="evenodd" d="M99.9906 8.48899C99.828 8.76996 98.959 8.81975 97.9744 8.24559C96.9876 7.67785 96.5959 6.90402 96.7582 6.62355C96.9257 6.34234 97.7873 6.29897 98.7718 6.86658C99.7589 7.43444 100.153 8.2084 99.9906 8.48899V8.48899ZM99.2274 6.0741C97.8611 5.28161 96.458 5.3256 95.9707 6.16763C95.8649 6.35482 95.8081 6.56091 95.8081 6.77935C95.8084 7.54046 96.4507 8.42042 97.519 9.03807C98.1738 9.41887 98.8408 9.60593 99.402 9.60593C100.02 9.60593 100.52 9.38156 100.776 8.94442C101.263 8.10214 100.601 6.86658 99.2274 6.0741" fill="#1A1A18"/>
<path fill-rule="evenodd" clip-rule="evenodd" d="M121.155 72.544C123.089 72.544 124.951 72.8545 126.693 73.4285C126.743 73.445 126.838 73.5306 126.843 73.4784C127.255 69.2573 131.181 71.4036 128.899 74.325C128.868 74.365 128.99 74.3697 129.036 74.3924C134.849 77.2904 138.843 83.2952 138.843 90.2325C138.843 97.1507 134.872 103.141 129.084 106.048C129.064 106.058 129.012 106.06 129.025 106.078C130.872 108.75 127.711 110.102 126.986 106.937C126.975 106.891 126.896 106.969 126.85 106.984C125.063 107.591 123.147 107.921 121.155 107.921C119.14 107.921 117.205 107.584 115.401 106.964C115.345 106.945 115.246 106.849 115.235 106.906C114.681 109.898 111.223 108.718 113.204 106.037C113.239 105.99 113.098 105.984 113.046 105.957C107.356 103.017 103.468 97.0786 103.466 90.2325C103.465 83.1688 107.078 76.9173 113.421 74.1907C113.463 74.1725 113.576 74.1735 113.548 74.1366C111.105 70.8461 115.397 69.6979 115.628 73.4181C115.63 73.4598 115.709 73.3958 115.75 73.3848C117.478 72.9216 119.27 72.544 121.155 72.544" fill="white"/>
<path fill-rule="evenodd" clip-rule="evenodd" d="M129.504 105.032L123.792 92.107L123.5 91.3706L131.47 94.6595L131.163 95.4145C131.069 95.6455 131.175 95.9141 131.406 96.0076C131.463 96.0327 131.524 96.0451 131.581 96.0451C131.763 96.0451 131.93 95.9392 132.007 95.7642L132.312 95.0092L133.454 95.4836C133.511 95.502 133.572 95.5145 133.629 95.5145C133.809 95.5145 133.979 95.4087 134.047 95.2339C134.146 95.0029 134.033 94.7345 133.804 94.641L132.662 94.1666L132.972 93.4178C133.068 93.1865 132.959 92.9181 132.723 92.8188C132.492 92.7245 132.223 92.8372 132.13 93.0682L131.817 93.8231L123.037 90.1912L122.919 89.8916L122.825 89.6606L123.061 89.5605L131.182 86.1657C131.268 86.2717 131.394 86.3277 131.524 86.3277C131.581 86.3275 131.638 86.3157 131.699 86.2906L132.772 85.841L132.524 86.3464C132.406 86.5713 132.504 86.8457 132.73 86.9583C132.792 86.9895 132.861 87.0082 132.93 87.0082C133.097 87.0082 133.26 86.9148 133.336 86.7522L134.109 85.1984L134.134 85.1483V85.1421C134.153 85.1171 134.158 85.0923 134.166 85.0612C134.178 85.0109 134.183 84.961 134.178 84.9113C134.178 84.8861 134.17 84.8613 134.166 84.8425C134.158 84.8176 134.153 84.7926 134.141 84.7675L133.91 84.1997C133.809 83.9687 133.54 83.8565 133.309 83.9563L131.106 84.8738C130.995 84.9236 130.907 85.0112 130.857 85.1236C130.833 85.1858 130.82 85.2606 130.833 85.3293L123.586 88.3561L129.228 75.3749C134.476 78.2708 138.04 83.8627 138.04 90.2785C138.04 96.5757 134.601 102.093 129.504 105.032V105.032ZM127.906 108.39L127.419 107.741C127.313 107.597 127.231 107.453 127.17 107.304L127.113 107.148L126.951 106.73L126.781 106.299L123.83 98.6416L125.398 97.9924L128.699 105.469L128.886 105.893L129.065 106.305L129.142 106.48C129.211 106.636 129.252 106.798 129.279 106.967L129.39 107.772L127.906 108.39V108.39ZM121.016 107.304C119.374 107.304 117.781 107.073 116.277 106.63L121.11 94.1416L125.915 106.586C124.366 107.054 122.719 107.304 121.016 107.304ZM115.404 106.355L115.243 106.78L115.074 107.204L115.042 107.292C114.98 107.447 114.894 107.591 114.793 107.735L114.306 108.384L112.814 107.759L112.932 106.96C112.959 106.792 113.001 106.63 113.065 106.48L113.114 106.374L113.296 105.962L113.484 105.544L116.829 97.986L118.394 98.6416L115.404 106.355V106.355ZM103.989 90.2785C103.989 83.7941 107.635 78.1522 112.976 75.2751L118.65 88.3876L111.362 85.3729C111.374 85.1797 111.268 84.9986 111.078 84.9175L108.871 84.0062C108.765 83.9626 108.634 83.9627 108.526 84.0062C108.415 84.0562 108.326 84.1436 108.277 84.2558L108.046 84.8113C108.046 84.8237 108.041 84.83 108.041 84.8425C108.029 84.8675 108.021 84.8926 108.016 84.9175C107.996 84.9923 107.996 85.0795 108.028 85.1608L108.595 86.8582C108.659 87.0456 108.838 87.1641 109.025 87.1641C109.077 87.1641 109.126 87.1581 109.176 87.1392C109.415 87.0642 109.538 86.8087 109.456 86.5651L109.2 85.7975L110.5 86.3341C110.554 86.3592 110.611 86.3718 110.667 86.3718C110.731 86.3716 110.793 86.3592 110.842 86.3341C110.911 86.309 110.968 86.2656 111.012 86.2092L119.175 89.5858L119.305 89.8916L119.399 90.1098L119.187 90.1972L110.407 93.867L110.094 93.1181C109.993 92.8807 109.732 92.7745 109.496 92.8687C109.264 92.968 109.158 93.2366 109.252 93.4677L109.562 94.2227L108.427 94.6969C108.196 94.7906 108.085 95.0592 108.184 95.29C108.258 95.4646 108.427 95.5707 108.602 95.5707C108.659 95.5706 108.72 95.5581 108.782 95.533L109.919 95.0592L110.232 95.8083C110.306 95.9827 110.475 96.0887 110.65 96.0887C110.712 96.0885 110.773 96.0761 110.825 96.0511C111.061 95.9577 111.167 95.6891 111.073 95.4587L110.756 94.7031L118.719 91.377L118.439 92.0884L112.671 105.113C107.497 102.192 103.989 96.6384 103.989 90.2785V90.2785ZM112.971 72.2046C113.09 71.9612 113.309 71.7613 113.582 71.6493C113.739 71.5869 113.899 71.5556 114.057 71.5556C114.337 71.5555 114.598 71.6616 114.768 71.8488C114.8 71.8738 114.825 71.9114 114.85 71.9489C114.874 71.9864 114.894 72.0236 114.911 72.0611L115.379 73.2533L115.549 73.6712L115.716 74.1017L119.236 83.0391L120.622 86.5587L120.871 87.1829L121.114 87.807L121.651 89.1676V89.1736L121.11 89.3986L120.516 89.6482L120.366 89.7043L120.361 89.7106L120.248 89.7602V89.7541L120.122 89.4797L120.041 89.2861L119.866 88.8806L119.78 88.693L113.789 74.8633L113.606 74.4386L113.427 74.0267L112.932 72.8849C112.846 72.6725 112.858 72.4356 112.971 72.2046V72.2046ZM121.016 73.2533C122.619 73.2533 124.167 73.4776 125.634 73.8898L121.114 85.3231L116.59 73.8398C118.001 73.4591 119.487 73.2533 121.016 73.2533V73.2533ZM118.98 97.1186L118.719 97.7866L117.195 97.1558L117.483 96.5006L118.98 97.1186V97.1186ZM117.85 95.6647L119.28 92.4441L119.822 91.0771L120.615 92.9122L120.578 92.9995L119.313 96.2697L117.85 95.6647ZM124.735 96.5006L125.028 97.1622L123.5 97.7924L123.236 97.1186L124.735 96.5006V96.5006ZM122.906 96.2697L121.639 92.9805L121.609 92.9058L121.358 92.338L121.114 91.764L120.602 90.5903L121.102 90.3842L121.703 90.1286L121.85 90.0662L121.983 90.016L121.988 90.0227L122.094 90.2971L122.17 90.4781L122.333 90.8838L122.402 91.0771L122.951 92.4627L124.366 95.6647L122.906 96.2697V96.2697ZM126.513 74.1642L126.675 73.7336L126.845 73.3157L127.337 72.0737C127.524 71.6177 128.125 71.4308 128.666 71.6554C129.211 71.8862 129.496 72.4356 129.316 72.8849L128.78 74.1081L128.605 74.5262L128.418 74.9507L122.443 88.693L121.602 86.5651L126.513 74.1642ZM138.951 90.2785C138.951 83.4948 135.17 77.5718 129.597 74.5323L130.151 73.2407C130.532 72.323 130.028 71.2373 129.016 70.8128C128.004 70.3947 126.874 70.8066 126.495 71.7303L125.976 73.0409C124.398 72.5853 122.736 72.3419 121.016 72.3419C119.366 72.3418 117.769 72.5667 116.253 72.9911L115.753 71.7177C115.374 70.8001 114.244 70.3947 113.232 70.8066C112.752 71.0061 112.366 71.3622 112.154 71.8053C111.928 72.2733 111.903 72.7787 112.097 73.2407L112.615 74.4386C106.948 77.4532 103.078 83.4257 103.078 90.2785C103.078 97.0062 106.805 102.885 112.302 105.95L112.228 106.118C112.127 106.349 112.066 106.586 112.029 106.829L111.866 107.978C111.834 108.19 111.947 108.39 112.139 108.471L114.281 109.357C114.337 109.382 114.399 109.388 114.456 109.388C114.598 109.388 114.731 109.326 114.818 109.207L115.524 108.278C115.667 108.077 115.792 107.866 115.891 107.629L115.94 107.485C117.557 107.959 119.256 108.215 121.016 108.215C122.833 108.215 124.592 107.941 126.244 107.435L126.325 107.647C126.414 107.872 126.54 108.084 126.687 108.284L127.381 109.214C127.475 109.332 127.606 109.401 127.748 109.401C127.805 109.401 127.869 109.388 127.923 109.363L130.072 108.477C130.259 108.402 130.377 108.196 130.345 107.991L130.178 106.842C130.146 106.592 130.077 106.355 129.983 106.118L129.87 105.875C135.288 102.785 138.951 96.9502 138.951 90.2785" fill="#1A1A18"/>
<path fill-rule="evenodd" clip-rule="evenodd" d="M120.249 89.7543V89.7602H120.241V89.7543L120.123 89.4797L120.249 89.7542V89.7543Z" fill="white"/>
<path fill-rule="evenodd" clip-rule="evenodd" d="M126.952 106.73L127.114 107.148L126.944 106.73L126.782 106.299L126.952 106.73V106.73Z" fill="white"/>
<path fill-rule="evenodd" clip-rule="evenodd" d="M127.906 108.39H127.898L127.418 107.741L127.906 108.39Z" fill="white"/>
<path fill-rule="evenodd" clip-rule="evenodd" d="M48.7535 100.022C58.6595 100.022 66.6896 108.052 66.6896 117.958C66.6896 127.864 58.6595 135.894 48.7535 135.894C38.8476 135.894 30.8174 127.864 30.8174 117.958C30.8174 108.052 38.8476 100.022 48.7535 100.022" fill="white"/>
<path fill-rule="evenodd" clip-rule="evenodd" d="M65.4961 121.694C64.6901 121.874 64.18 122.298 63.7151 122.68C63.149 123.142 62.6652 123.543 61.6531 123.543C60.6405 123.543 60.1531 123.142 59.5909 122.68C58.9761 122.174 58.2786 121.601 56.9289 121.601C55.583 121.601 54.8854 122.174 54.2707 122.68C53.7082 123.142 53.2208 123.543 52.2123 123.543C51.1999 123.543 50.7126 123.142 50.1503 122.68C49.5543 122.189 48.883 121.638 47.612 121.604V120.071C47.612 119.812 47.4019 119.602 47.1395 119.602H44.9386V117.098C44.95 117.101 44.9612 117.101 44.9723 117.101H44.9763L46.6671 117.083V117.746C46.6671 118.009 46.8808 118.219 47.1395 118.219C47.4019 118.218 47.612 118.009 47.612 117.746V115.546C47.612 115.283 47.4019 115.073 47.1395 115.073C46.8808 115.073 46.6671 115.283 46.6671 115.546V116.138L44.965 116.16C44.9572 116.16 44.9461 116.16 44.9386 116.164V113.663L47.1369 113.655C47.3993 113.655 47.6091 113.442 47.6091 113.183V111.166C47.6091 110.926 47.4292 110.724 47.193 110.697L37.099 109.58C36.9678 109.562 36.8325 109.607 36.7315 109.697C36.6305 109.783 36.5739 109.914 36.5739 110.049V113.191C36.5739 113.45 36.7839 113.663 37.0465 113.663H38.9699V119.602H31.6849C31.6325 119.062 31.6061 118.511 31.6061 117.956C31.6063 108.501 39.2998 100.811 48.7556 100.811C58.2113 100.811 65.9046 108.501 65.9046 117.956C65.9047 119.238 65.7624 120.491 65.4961 121.694ZM63.9589 125.89C63.8763 125.953 63.7939 126.021 63.7151 126.085C63.149 126.546 62.6652 126.947 61.6531 126.947C60.6405 126.947 60.1531 126.546 59.5909 126.085C58.9761 125.578 58.2786 125.005 56.9289 125.005C55.583 125.005 54.8854 125.578 54.2707 126.085C53.7082 126.546 53.2208 126.947 52.2123 126.947C51.1999 126.947 50.7126 126.546 50.1503 126.085C49.5543 125.593 48.883 125.042 47.612 125.009V122.549C48.5418 122.579 49.0102 122.965 49.5503 123.408C50.1654 123.914 50.8627 124.484 52.2123 124.484C53.5586 124.484 54.2558 123.914 54.8706 123.408C55.4332 122.947 55.9205 122.545 56.9289 122.545C57.9413 122.545 58.4285 122.947 58.9909 123.408C59.6059 123.914 60.3033 124.484 61.6531 124.484C63.0028 124.484 63.7 123.914 64.3149 123.408C64.6074 123.168 64.8774 122.947 65.211 122.789C64.8926 123.869 64.4725 124.907 63.9589 125.89V125.89ZM60.7418 130.209C60.2807 130.055 59.9507 129.785 59.5909 129.489C58.9761 128.983 58.2786 128.409 56.9289 128.409C55.583 128.409 54.8854 128.983 54.2709 129.489C53.7082 129.95 53.2208 130.352 52.2123 130.352C51.1999 130.352 50.7126 129.95 50.1503 129.489C49.5543 128.998 48.883 128.447 47.612 128.413V125.953C48.5418 125.983 49.0102 126.37 49.5503 126.812C50.1654 127.318 50.8627 127.888 52.2123 127.888C53.5586 127.888 54.2558 127.318 54.8706 126.812C55.4332 126.351 55.9205 125.95 56.9289 125.95C57.9413 125.95 58.4285 126.351 58.9909 126.812C59.6059 127.318 60.3033 127.888 61.6531 127.888C62.1254 127.888 62.5192 127.817 62.8564 127.704C62.2341 128.604 61.5254 129.444 60.7418 130.209ZM48.7557 135.105C48.3694 135.105 47.9908 135.094 47.612 135.068V129.358C48.5418 129.388 49.0102 129.774 49.5503 130.216C50.1654 130.723 50.8627 131.292 52.2123 131.292C53.5586 131.292 54.2558 130.723 54.8706 130.216C55.4332 129.755 55.9205 129.354 56.9289 129.354C57.9413 129.354 58.4285 129.755 58.9909 130.216C59.2835 130.456 59.5909 130.711 59.9809 130.91C56.9702 133.523 53.0447 135.105 48.7557 135.105V135.105ZM37.5188 112.718V110.578L46.6681 111.586V112.711L37.5188 112.718ZM39.9149 113.663H43.9938V119.602H39.9149V113.663ZM46.6671 134.978C39.045 134.048 32.9485 128.098 31.8011 120.544L46.6671 120.543V134.978ZM48.7557 99.866C38.7785 99.866 30.6614 107.983 30.6614 117.956C30.6615 118.511 30.6878 119.059 30.7365 119.602C30.7627 119.917 30.8003 120.232 30.8491 120.544C32.0074 128.619 38.5237 134.989 46.6671 135.931C46.9782 135.968 47.2933 135.994 47.612 136.013C47.9908 136.039 48.3729 136.05 48.7556 136.05C53.487 136.05 57.7949 134.228 61.0193 131.244C61.3343 130.955 61.638 130.655 61.9304 130.34C63.0101 129.193 63.9401 127.907 64.6935 126.512C64.9336 126.062 65.1585 125.605 65.3611 125.132C65.721 124.304 66.0208 123.438 66.257 122.549C66.2983 122.388 66.3358 122.23 66.3734 122.069C66.6846 120.746 66.8457 119.37 66.8457 117.956C66.8457 107.983 58.7323 99.8662 48.7557 99.866" fill="#1A1A18"/>
<path fill-rule="evenodd" clip-rule="evenodd" d="M42.8954 115.032V118.181C42.8954 118.444 42.6855 118.654 42.423 118.654C42.1644 118.654 41.9507 118.444 41.9507 118.181L41.9508 115.909L41.3507 116.31C41.1336 116.453 40.841 116.393 40.6947 116.176C40.5522 115.958 40.6123 115.666 40.8297 115.523L42.1644 114.638C42.3069 114.541 42.4945 114.533 42.6482 114.616C42.8019 114.698 42.8954 114.856 42.8954 115.032" fill="#1A1A18"/>
<path fill-rule="evenodd" clip-rule="evenodd" d="M90.1774 100.826C100.083 100.826 108.114 108.856 108.114 118.762C108.114 128.668 100.083 136.699 90.1773 136.699C80.2716 136.699 72.2412 128.668 72.2412 118.762C72.2412 108.856 80.2716 100.826 90.1773 100.826" fill="white"/>
<path fill-rule="evenodd" clip-rule="evenodd" d="M97.3751 115.798L97.5498 114.747C97.5649 114.672 97.6064 114.609 97.6753 114.572L101.673 112.439C101.71 112.42 101.747 112.408 101.784 112.408C101.873 112.408 101.961 112.452 102.003 112.539L102.798 114.034C102.862 114.146 102.818 114.297 102.697 114.359L98.6946 116.498C98.6329 116.535 98.5516 116.535 98.4902 116.504L97.513 116.06C97.4144 116.017 97.3577 115.91 97.3751 115.798V115.798ZM93.262 135.504C94.6919 130.876 95.4501 125.491 95.4501 119.856C95.4501 119.062 95.4378 118.268 95.4057 117.48L96.856 116.704C96.937 116.779 97.0328 116.842 97.1388 116.892L98.1087 117.33C98.2637 117.399 98.4212 117.436 98.5836 117.436C98.7758 117.436 98.9579 117.392 99.1277 117.298L103.13 115.16C103.687 114.866 103.906 114.165 103.598 113.602L102.805 112.108C102.505 111.545 101.803 111.332 101.24 111.632L97.2447 113.771C96.9319 113.94 96.7079 114.247 96.6514 114.603L96.4743 115.654C96.4617 115.728 96.4568 115.804 96.4617 115.879V115.885L95.3566 116.473V116.466C95.0614 111.088 94.0543 106.048 92.4543 101.888C100.772 103.002 107.202 110.144 107.202 118.756C107.202 127.092 101.178 134.047 93.2619 135.504H93.262ZM90.1777 135.785C89.503 135.785 88.8457 135.741 88.1959 135.667C86.931 131.764 86.175 127.274 85.9682 122.521V122.514L87.2755 121.82C87.8022 123.365 88.927 124.434 90.2219 124.434C92.0214 124.434 93.486 122.383 93.486 119.856C93.486 119.412 93.4367 118.987 93.3554 118.574L93.3556 118.568L94.5124 117.955C94.5298 118.587 94.5371 119.218 94.5371 119.856C94.5371 125.572 93.7541 131.026 92.2551 135.654C91.5733 135.741 90.8791 135.785 90.1777 135.785ZM82.9801 123.771L82.8052 124.822C82.7927 124.897 82.7485 124.96 82.6794 124.997L78.6822 127.136C78.6256 127.161 78.5589 127.174 78.5022 127.155C78.4383 127.13 78.389 127.092 78.352 127.03L77.5572 125.535C77.5251 125.479 77.5201 125.416 77.5373 125.354C77.5572 125.291 77.6013 125.241 77.6505 125.21L81.6532 123.071C81.7223 123.04 81.8032 123.04 81.8673 123.065L82.842 123.509C82.9408 123.553 82.997 123.659 82.9801 123.771ZM73.1532 118.756C73.1532 110.113 79.6344 102.945 87.9941 101.876C86.057 106.892 84.9983 113.202 84.9983 119.856C84.9986 120.569 85.0107 121.276 85.0377 121.977L83.4551 122.827C83.3862 122.764 83.3046 122.721 83.2236 122.677L82.2464 122.239C81.9216 122.089 81.5398 122.102 81.2272 122.27L77.2248 124.409C76.9565 124.553 76.7568 124.791 76.6682 125.091C76.5749 125.385 76.6068 125.691 76.7568 125.967L77.5498 127.461C77.6947 127.736 77.9385 127.93 78.2313 128.024C78.3447 128.055 78.4579 128.074 78.5711 128.074C78.7582 128.074 78.9379 128.024 79.1151 127.937L83.1104 125.798C83.423 125.635 83.6494 125.323 83.7035 124.966L83.8808 123.915C83.8934 123.821 83.8981 123.722 83.8857 123.628L85.0796 122.996C85.3061 127.499 86.0248 131.764 87.1892 135.523C79.2213 134.103 73.1532 127.13 73.1532 118.756V118.756ZM87.9079 120.451C87.8836 120.257 87.871 120.057 87.871 119.856C87.8712 117.868 88.9516 116.185 90.2219 116.185C91.096 116.185 91.8785 116.973 92.2847 118.111L87.9079 120.451V120.451ZM92.5113 119.025C92.5531 119.293 92.5727 119.569 92.5727 119.856C92.5728 121.845 91.497 123.527 90.2219 123.527C89.2966 123.527 88.4765 122.633 88.095 121.382L92.5113 119.025V119.025ZM89.0157 101.776C89.0775 101.613 89.1387 101.457 89.2076 101.301C89.2719 101.144 89.3406 100.994 89.4095 100.838C89.4268 100.794 89.4463 100.75 89.471 100.7C89.6264 100.344 89.9141 100.131 90.2219 100.131C90.5346 100.131 90.8151 100.344 90.9774 100.707C90.9973 100.75 91.0144 100.794 91.0341 100.838C91.1031 100.994 91.172 101.151 91.2409 101.313C91.3025 101.469 91.3713 101.626 91.4353 101.782C93.1488 106.041 94.1999 111.301 94.468 116.942V116.948L93.0921 117.68C92.5408 116.248 91.46 115.278 90.2219 115.278C88.4275 115.278 86.9626 117.33 86.9626 119.856C86.9627 120.219 86.9873 120.569 87.0513 120.907L85.9361 121.501C85.9191 120.951 85.9117 120.407 85.9117 119.856C85.9119 113.115 87.007 106.754 89.0157 101.776V101.776ZM92.0657 100.919C91.9796 100.719 91.8982 100.525 91.8096 100.331C91.6545 99.9873 91.4279 99.7119 91.1523 99.5183C90.8791 99.3244 90.5591 99.218 90.2219 99.218C89.5523 99.2179 88.9467 99.6434 88.639 100.331C88.5503 100.519 88.4643 100.713 88.383 100.907C79.332 101.807 72.24 109.468 72.24 118.756C72.24 128.649 80.2843 136.699 90.1775 136.699C100.071 136.698 108.115 128.649 108.115 118.756C108.115 109.506 101.077 101.87 92.0657 100.919" fill="#1A1A18"/>
<path fill-rule="evenodd" clip-rule="evenodd" d="M90.1774 101.742C80.8308 101.742 73.2244 109.347 73.2244 118.694C73.2244 128.041 80.8306 135.646 90.1773 135.646C99.524 135.646 107.13 128.041 107.13 118.694C107.13 109.347 99.5239 101.742 90.1774 101.742ZM90.1774 136.631C80.2869 136.631 72.2397 128.584 72.2397 118.694C72.2397 108.804 80.2867 100.757 90.1773 100.757C100.068 100.757 108.115 108.804 108.115 118.694C108.115 128.584 100.068 136.631 90.1774 136.631Z" fill="#1A1A18"/>
<path fill-rule="evenodd" clip-rule="evenodd" d="M39.4339 84.2689C39.2612 84.2233 39.078 84.1506 38.8843 84.0501V83.4574C39.0243 83.5723 39.1956 83.6654 39.3985 83.7349C39.6015 83.805 39.8145 83.8404 40.0369 83.8404C40.256 83.8402 40.4213 83.7956 40.5328 83.7053C40.644 83.6153 40.6997 83.4879 40.6997 83.3231C40.6997 83.2114 40.6676 83.1201 40.6028 83.0482C40.5379 82.9767 40.4574 82.9174 40.3603 82.8705C40.2634 82.823 40.1266 82.7683 39.9508 82.7031L39.8323 82.66C39.6349 82.5917 39.4723 82.5219 39.3449 82.4504C39.2173 82.378 39.1105 82.276 39.0243 82.1428C38.938 82.0098 38.895 81.8395 38.895 81.6316C38.895 81.4582 38.938 81.2961 39.0243 81.1406C39.1105 80.9863 39.2452 80.8602 39.4283 80.7616C39.6114 80.6627 39.8412 80.6129 40.1177 80.6129C40.3189 80.6128 40.4872 80.6319 40.6215 80.6693C40.7561 80.7068 40.9168 80.7711 41.1037 80.8608V81.4426C40.9205 81.3274 40.7624 81.2429 40.6297 81.1873C40.4966 81.131 40.3385 81.1034 40.1557 81.1034C39.9436 81.1032 39.7822 81.1463 39.6707 81.2329C39.5593 81.3187 39.5038 81.4317 39.5038 81.572C39.5038 81.6907 39.5346 81.7869 39.5953 81.8602C39.6563 81.9335 39.7362 81.993 39.835 82.0378C39.9339 82.0831 40.0763 82.1365 40.2634 82.1969C40.4825 82.2691 40.6647 82.3437 40.81 82.4207C40.9556 82.4975 41.075 82.6039 41.1682 82.7386C41.2617 82.8727 41.3083 83.0444 41.3083 83.2527C41.3083 83.4504 41.2643 83.6313 41.1766 83.7945C41.0884 83.9572 40.952 84.0889 40.7671 84.1879C40.5819 84.2862 40.3513 84.3359 40.0747 84.3359C39.8197 84.3357 39.6062 84.313 39.4339 84.2689" fill="#1A1A18"/>
<path fill-rule="evenodd" clip-rule="evenodd" d="M43.5318 82.4777C43.8154 82.4777 44.0102 82.419 44.1165 82.302C44.2222 82.1855 44.2754 82.0303 44.2754 81.8364C44.2754 81.6354 44.2222 81.4757 44.1165 81.3567C44.0102 81.2379 43.8154 81.1786 43.5317 81.1786L42.7775 81.1784V82.4777H43.5318V82.4777ZM42.7775 84.2715H42.1848V80.6775H43.6069C44.0202 80.6775 44.338 80.7736 44.5607 80.9662C44.7833 81.1584 44.8949 81.4409 44.8949 81.8148C44.8949 82.188 44.7824 82.4765 44.5579 82.6791C44.3337 82.8817 44.0167 82.983 43.6069 82.983H42.7775V84.2715V84.2715Z" fill="#1A1A18"/>
<path fill-rule="evenodd" clip-rule="evenodd" d="M48.1197 83.4981C48.2905 83.2843 48.3759 82.9421 48.3759 82.4719C48.3759 82.005 48.2894 81.6651 48.1171 81.4541C47.9449 81.2415 47.6771 81.1362 47.3145 81.1362C46.9519 81.136 46.6841 81.2417 46.5116 81.4541C46.3394 81.6647 46.2533 82.0069 46.2533 82.4777C46.2533 82.9476 46.3394 83.2888 46.5116 83.5006C46.6841 83.7126 46.9519 83.819 47.3145 83.819C47.6807 83.819 47.9493 83.7116 48.1197 83.4981ZM46.0752 83.8671C45.788 83.5548 45.6443 83.0911 45.6443 82.4777C45.6443 81.8664 45.7861 81.4041 46.0701 81.0895C46.3535 80.7751 46.7685 80.6182 47.3145 80.6182C47.8567 80.6182 48.2716 80.7736 48.5588 81.085C48.8464 81.3951 48.9898 81.8597 48.9898 82.4777C48.9898 83.0872 48.8472 83.5505 48.5616 83.8646C48.2763 84.1783 47.8604 84.336 47.3145 84.336C46.7756 84.3357 46.3626 84.1799 46.0752 83.8671" fill="#1A1A18"/>
<path fill-rule="evenodd" clip-rule="evenodd" d="M50.4886 82.4283H51.3238C51.5608 82.4283 51.7375 82.3765 51.8546 82.2722C51.9712 82.1676 52.0294 82.01 52.0294 81.7979C52.0294 81.5934 51.9817 81.4396 51.887 81.3354C51.7917 81.2308 51.6364 81.1786 51.4207 81.1786L50.4886 81.1784V82.4283V82.4283ZM52.0886 84.2715L51.2482 82.9133H50.4886V84.2715H49.896V80.6775H51.4907C51.8681 80.6775 52.1562 80.7692 52.3555 80.9499C52.5549 81.1311 52.6544 81.4016 52.6544 81.7607C52.6544 82.0188 52.5834 82.245 52.4416 82.4393C52.2998 82.6337 52.1084 82.7577 51.8681 82.8112L52.8269 84.2715H52.0886V84.2715Z" fill="#1A1A18"/>
<path fill-rule="evenodd" clip-rule="evenodd" d="M54.506 81.1784H53.3479V80.6775H56.2623V81.1784H55.0987V84.2715H54.506V81.1784Z" fill="#1A1A18"/>
<path fill-rule="evenodd" clip-rule="evenodd" d="M59.2729 83.4981C59.4437 83.2843 59.529 82.9421 59.529 82.4719C59.529 82.005 59.4427 81.6651 59.2702 81.4541C59.098 81.2415 58.8302 81.1362 58.4677 81.1362C58.1051 81.136 57.8373 81.2417 57.6648 81.4541C57.4924 81.6647 57.4065 82.0069 57.4065 82.4777C57.4065 82.9476 57.4924 83.2888 57.6648 83.5006C57.8373 83.7126 58.1051 83.819 58.4677 83.819C58.8339 83.819 59.1023 83.7116 59.2729 83.4981V83.4981ZM57.2284 83.8671C56.9412 83.5548 56.7974 83.0911 56.7974 82.4777C56.7974 81.8664 56.9393 81.4041 57.2233 81.0895C57.5067 80.7751 57.9216 80.6182 58.4677 80.6182C59.0097 80.6182 59.4245 80.7736 59.7119 81.085C59.9995 81.3951 60.1427 81.8597 60.1427 82.4777C60.143 83.0872 60.0004 83.5505 59.7148 83.8646C59.4295 84.1783 59.0136 84.336 58.4677 84.336C57.9288 84.3357 57.516 84.1799 57.2284 83.8671" fill="#1A1A18"/>
<path fill-rule="evenodd" clip-rule="evenodd" d="M63.9722 80.6775L62.5821 84.2713H61.9628L60.5999 80.6775H61.2679L62.3129 83.5761L63.3472 80.6832L63.9722 80.6775Z" fill="#1A1A18"/>
<path fill-rule="evenodd" clip-rule="evenodd" d="M67.7497 80.6775V84.2713H67.2166L65.2717 81.5986V84.2713H64.7063V80.6775H65.2775L67.1843 83.3179V80.6775H67.7497Z" fill="#1A1A18"/>
<path fill-rule="evenodd" clip-rule="evenodd" d="M69.2283 79.7401H69.8159L69.2882 80.3543H68.9698L69.2283 79.7401ZM68.7974 80.6774H69.3957V84.2713H68.7974V80.6774Z" fill="#1A1A18"/>
<path fill-rule="evenodd" clip-rule="evenodd" d="M73.8946 82.811L73.3341 81.2701L72.7791 82.811H73.8946V82.811ZM74.072 83.2965H72.6013L72.251 84.2713H71.6584L73.0592 80.6775H73.6891L75.0526 84.2713H74.4272L74.072 83.2965V83.2965Z" fill="#1A1A18"/>
<path fill-rule="evenodd" clip-rule="evenodd" d="M76.7133 82.741L76.3848 83.1018V84.2713H75.7864V80.6775H76.3848V82.4233L77.8286 80.6775H78.5829L77.1228 82.2887L78.7011 84.2715H77.9201L76.7133 82.741V82.741Z" fill="#1A1A18"/>
<path fill-rule="evenodd" clip-rule="evenodd" d="M81.5082 82.811L80.9479 81.2701L80.3929 82.811H81.5082V82.811ZM81.6864 83.2965H80.2154L79.8653 84.2713H79.2727L80.6733 80.6775H81.3035L82.6663 84.2713H82.0415L81.6864 83.2965Z" fill="#1A1A18"/>
<path fill-rule="evenodd" clip-rule="evenodd" d="M84.6017 83.7703C85.0043 83.7703 85.3004 83.6654 85.4913 83.4575C85.6815 83.2488 85.7764 82.9213 85.7764 82.4719C85.7764 82.0228 85.6815 81.6941 85.4913 81.4857C85.3004 81.2777 85.0043 81.1734 84.6017 81.1734L83.9932 81.1733V83.7703H84.6017ZM83.4004 80.6775H84.6618C85.8111 80.6775 86.3851 81.2759 86.3851 82.4719C86.3855 83.671 85.8111 84.2715 84.6618 84.2715H83.4004V80.6775V80.6775Z" fill="#1A1A18"/>
<path fill-rule="evenodd" clip-rule="evenodd" d="M87.2825 80.6775H89.6368V81.1784H87.881V82.2186H89.4106V82.7247H87.8752V83.7703H89.6368V84.2715H87.2825V80.6775Z" fill="#1A1A18"/>
<path fill-rule="evenodd" clip-rule="evenodd" d="M94.0854 80.6775V84.2713H93.4928V81.529L92.2911 83.1885L91.1436 81.5394V84.2713H90.5674V80.6775H91.1873L92.3184 82.3478L93.4764 80.6775H94.0854V80.6775Z" fill="#1A1A18"/>
<path d="M95.7308 80.6775H95.1326V84.2713H95.7308V80.6775Z" fill="#1A1A18"/>
<path fill-rule="evenodd" clip-rule="evenodd" d="M96.7778 80.6775H99.1321V81.1784H97.376V82.2186H98.9058V82.7247H97.3704V83.7703H99.1321V84.2715H96.7778V80.6775Z" fill="#1A1A18"/>
<path fill-rule="evenodd" clip-rule="evenodd" d="M61.4501 90.3374C61.8525 90.3374 62.1488 90.2333 62.3397 90.0256C62.5299 89.8167 62.6246 89.4884 62.6246 89.0392C62.6246 88.5899 62.5299 88.2621 62.3397 88.0534C62.1489 87.8458 61.8525 87.7414 61.4501 87.7414L60.8416 87.7411V90.3374H61.4501ZM60.249 87.2454H61.51C62.6587 87.2454 63.2337 87.8437 63.2337 89.0392C63.2337 90.2389 62.6587 90.8386 61.51 90.8386L60.249 90.8385V87.2454Z" fill="#1A1A18"/>
<path fill-rule="evenodd" clip-rule="evenodd" d="M66.4718 90.0652C66.6425 89.8522 66.7276 89.5101 66.7276 89.0392C66.7276 88.5723 66.6412 88.233 66.4687 88.0213C66.2967 87.8089 66.0289 87.7036 65.6663 87.7036C65.3037 87.7036 65.0362 87.8091 64.8637 88.0213C64.6912 88.2329 64.6052 88.5742 64.6052 89.0448C64.6056 89.5148 64.6912 89.8562 64.8637 90.068C65.0364 90.28 65.3037 90.3864 65.6663 90.3864C66.0328 90.3862 66.3013 90.279 66.4718 90.0652V90.0652ZM64.4273 90.4343C64.1399 90.1222 63.9963 89.6591 63.9963 89.0448C63.9963 88.4339 64.1378 87.9721 64.4221 87.6573C64.7053 87.3433 65.1204 87.1862 65.6663 87.1862C66.2085 87.1862 66.6235 87.3417 66.9104 87.6523C67.1986 87.9625 67.3417 88.4276 67.3417 89.0448C67.3417 89.655 67.199 90.1179 66.9135 90.432C66.6278 90.7463 66.2123 90.9039 65.6663 90.9039C65.1274 90.9036 64.7147 90.7479 64.4273 90.4343" fill="#1A1A18"/>
<path fill-rule="evenodd" clip-rule="evenodd" d="M70.2197 90.2169C70.3487 90.1319 70.4132 89.9826 70.4132 89.7672C70.4132 89.5509 70.3461 89.4062 70.2116 89.333C70.077 89.2588 69.8996 89.2225 69.6808 89.2225L68.8456 89.222V90.3432H69.6973C69.9159 90.3432 70.0903 90.3003 70.2197 90.2169V90.2169ZM68.8405 88.7434H69.6486C69.8173 88.7434 69.9545 88.7089 70.0606 88.6411C70.1667 88.5722 70.2197 88.4483 70.2197 88.269C70.2197 88.0788 70.1667 87.9443 70.0606 87.8652C69.9545 87.7859 69.8008 87.7465 69.6001 87.7465H68.8405V88.7434ZM70.8447 89.2333C70.9628 89.3803 71.0224 89.5667 71.0224 89.7937C71.0224 90.1455 70.9034 90.4078 70.6664 90.5803C70.4294 90.7519 70.1085 90.8386 69.7023 90.8386L68.2478 90.8385V87.2454H69.5785C69.9988 87.2454 70.3103 87.3295 70.5129 87.4988C70.7159 87.6672 70.8176 87.9075 70.8176 88.2203C70.8176 88.3965 70.779 88.5363 70.7012 88.6381C70.6241 88.7402 70.5192 88.8326 70.3867 88.9153C70.5729 88.9801 70.7258 89.0865 70.8447 89.2333" fill="#1A1A18"/>
<path fill-rule="evenodd" clip-rule="evenodd" d="M72.5103 86.3999H72.9032L73.1406 86.755L73.3776 86.3999H73.7708L73.3561 87.0514H72.9466L72.5103 86.3999ZM72.4937 88.9962H73.3291C73.566 88.9962 73.7427 88.9445 73.8598 88.8401C73.9767 88.7357 74.0348 88.5779 74.0348 88.3657C74.0348 88.1613 73.9874 88.0075 73.8921 87.9033C73.7966 87.7988 73.6418 87.7465 73.4255 87.7465H72.4937V88.9962V88.9962ZM74.0941 90.8385L73.2538 89.4813H72.4937V90.8385H71.9011V87.2454H73.4959C73.8738 87.2454 74.1617 87.3363 74.3607 87.517C74.5598 87.6981 74.6596 87.9689 74.6596 88.3277C74.6596 88.5867 74.5888 88.8131 74.4467 89.0069C74.3051 89.2008 74.1138 89.3256 73.8736 89.3786L74.8321 90.8385H74.0941Z" fill="#1A1A18"/>
<path fill-rule="evenodd" clip-rule="evenodd" d="M76.0683 86.3074H76.6557L76.1276 86.9223H75.8098L76.0683 86.3074ZM75.6375 87.2454H76.2356V90.8385H75.6375V87.2454Z" fill="#1A1A18"/>
<path fill-rule="evenodd" clip-rule="evenodd" d="M77.762 86.3505H78.1552L78.3921 86.7062L78.6296 86.3505H79.0225L78.6081 87.0035H78.1986L77.762 86.3505ZM77.7192 90.836C77.5468 90.7913 77.3633 90.7188 77.1694 90.6174V90.0254C77.3098 90.1403 77.4808 90.2328 77.6838 90.3023C77.8872 90.3731 78.0994 90.4078 78.3223 90.4078C78.5411 90.4074 78.7066 90.3628 78.8178 90.2731C78.929 90.1832 78.9848 90.0559 78.9848 89.8904C78.9848 89.7791 78.9531 89.6882 78.888 89.6154C78.8231 89.5438 78.7427 89.4847 78.6453 89.4379C78.5489 89.391 78.4121 89.3354 78.236 89.2711L78.1178 89.2274C77.92 89.1596 77.7578 89.0891 77.63 89.0178C77.5025 88.946 77.3955 88.8441 77.3097 88.7106C77.2231 88.5778 77.1802 88.4068 77.1802 88.1989C77.1802 88.0262 77.2231 87.8634 77.3097 87.7085C77.3955 87.5543 77.5308 87.4281 77.7136 87.3289C77.8967 87.2301 78.1267 87.1811 78.4029 87.1811C78.6043 87.1808 78.7723 87.1993 78.907 87.2371C79.0415 87.2742 79.202 87.3388 79.389 87.4285L79.3891 88.0098C79.2059 87.8954 79.0478 87.8103 78.9153 87.7547C78.782 87.6981 78.6239 87.6708 78.4413 87.6708C78.2292 87.6704 78.0673 87.7143 77.956 87.8003C77.8448 87.8859 77.7893 87.9999 77.7893 88.1402C77.7893 88.258 77.8195 88.3543 77.8809 88.4282C77.9415 88.5014 78.0211 88.5609 78.1204 88.6057C78.2189 88.6503 78.3616 88.7036 78.5487 88.765C78.768 88.8362 78.95 88.911 79.0952 88.988C79.2413 89.065 79.3607 89.1712 79.4535 89.3058C79.547 89.4406 79.5937 89.6123 79.5937 89.8209C79.5938 90.0178 79.5495 90.1986 79.4616 90.3617C79.374 90.5251 79.2375 90.6567 79.0523 90.7552C78.8673 90.8537 78.6365 90.9038 78.3605 90.9038C78.1052 90.9035 77.8917 90.8804 77.7192 90.836" fill="#1A1A18"/>
<path fill-rule="evenodd" clip-rule="evenodd" d="M51.6817 59.8737H48.6175C48.1813 59.8737 47.8845 59.804 47.7266 59.6652C47.5748 59.5198 47.4989 59.2418 47.4989 58.8311V53.9089C47.4989 53.4987 47.5748 53.2204 47.7266 53.0813C47.8845 52.9355 48.1813 52.8668 48.6172 52.8668L50.0894 52.8667C50.5066 52.8667 50.7909 52.936 50.9425 53.0813C51.1005 53.2199 51.1764 53.4987 51.1764 53.9091V56.7016H55.6687V53.29C55.6687 50.7371 54.2785 49.4545 51.4857 49.4545L47.2273 49.4543C44.4348 49.4543 43.0447 50.7376 43.0447 53.29V59.2925C43.0447 61.8762 44.3714 63.1717 47.0314 63.1717L50.1715 63.1714C50.5826 63.1714 50.8666 63.2415 51.0246 63.3803C51.1764 63.5258 51.252 63.8037 51.252 64.2145V69.4459C51.252 69.8563 51.1764 70.1348 51.0246 70.2737C50.8666 70.4189 50.5826 70.4886 50.1715 70.4886L48.6996 70.4882C48.2571 70.4882 47.96 70.4189 47.8087 70.2737C47.6508 70.1345 47.5748 69.8567 47.5748 69.4459V66.6911H43.1203V70.0649C43.1203 72.6176 44.5293 73.9004 47.3408 73.9004L51.5237 73.9003C54.3417 73.9003 55.7445 72.6178 55.7445 70.0653V63.6708C55.7445 61.1437 54.3924 59.8738 51.6817 59.8737" fill="#1A1A18"/>
<path fill-rule="evenodd" clip-rule="evenodd" d="M67.1217 65.4529L69.1374 53.7578L71.2668 65.4529H67.1217ZM72.1575 49.4543H66.1551L61.2332 73.9003H65.6876L66.5405 68.8269H71.8859L72.8147 73.9003H77.3071L72.1575 49.4543V49.4543Z" fill="#1A1A18"/>
<path fill-rule="evenodd" clip-rule="evenodd" d="M91.8246 69.5976C91.8246 70.0146 91.7424 70.2927 91.591 70.4317C91.4329 70.5702 91.1485 70.6465 90.7378 70.6465H87.2502V52.7086H90.7378C91.1485 52.7086 91.4329 52.7848 91.591 52.9237C91.7426 53.0623 91.8246 53.3408 91.8246 53.7578V69.5976ZM92.09 49.4543H82.7957V73.9003H92.09C94.908 73.9003 96.3171 72.6178 96.3171 70.0653V53.29C96.3171 50.7371 94.908 49.4545 92.09 49.4543" fill="#1A1A18"/>
<path fill-rule="evenodd" clip-rule="evenodd" d="M59.5015 71.8745V73.9002H57.4758V71.8745H59.5015Z" fill="#1A1A18"/>
<path fill-rule="evenodd" clip-rule="evenodd" d="M81.064 71.8745V73.9001H79.0383V71.8745H81.064Z" fill="#1A1A18"/>
<path fill-rule="evenodd" clip-rule="evenodd" d="M100.074 71.8745V73.9002H98.0486V71.8745H100.074Z" fill="#1A1A18"/>
<path fill-rule="evenodd" clip-rule="evenodd" d="M121.015 29.7163C130.921 29.7163 138.951 37.7466 138.951 47.6525C138.951 57.5583 130.921 65.5887 121.015 65.5887C111.109 65.5887 103.079 57.5583 103.079 47.6525C103.079 37.7466 111.109 29.7163 121.015 29.7163V29.7163ZM121.015 30.6272C130.418 30.6272 138.041 38.2496 138.041 47.6525C138.041 57.0553 130.418 64.678 121.015 64.678C111.612 64.678 103.99 57.0553 103.99 47.6525C103.99 38.2496 111.612 30.6272 121.015 30.6272" fill="#1A1A18"/>
<path fill-rule="evenodd" clip-rule="evenodd" d="M121.015 30.5751C130.447 30.5751 138.093 38.2208 138.093 47.6526C138.093 57.0842 130.447 64.7302 121.015 64.7302C111.584 64.7302 103.938 57.0842 103.938 47.6526C103.938 38.2208 111.584 30.5751 121.015 30.5751" fill="white"/>
<path fill-rule="evenodd" clip-rule="evenodd" d="M110.931 61.9443H110.984C111.067 61.895 115.935 60.6968 115.957 60.6915L120.319 59.6012C120.508 59.5538 120.761 59.4484 120.95 59.4945C122.628 59.9032 124.321 60.2705 126.006 60.672C126.102 60.695 130.918 61.8323 131.058 61.8437L131.162 61.3891L128.126 60.6837L128.126 57.3849H131.206V50.6255L124.447 50.6252L124.446 57.3849H127.655V60.5713L121.019 59.0285C121.004 59.0034 121.011 59.0528 121.003 58.9797C121.002 58.9757 121.003 58.9385 121.003 58.9319C121.005 58.45 120.985 55.965 121.011 55.8462L123.646 55.8267V55.3801L121.011 55.376L121.011 53.4232L120.545 53.4153V55.376L113.192 55.3762L114.69 52.6341C114.994 52.0974 115.287 51.5206 115.593 50.9861C116.049 50.1897 116.49 49.2975 116.941 48.5234C117.253 47.9872 116.573 48.0865 116.253 48.0865C115.683 48.0865 115.113 48.0865 114.544 48.0866C114.559 48.0165 114.8 47.6347 114.856 47.5387C115.59 46.2737 116.358 45.0064 117.094 43.7349C117.618 42.8296 118.176 41.9186 118.695 41.0152C118.748 40.922 118.829 40.8244 118.776 40.6886C118.732 40.5748 118.627 40.5452 118.485 40.5455C117.906 40.5472 117.327 40.5469 116.749 40.5459C116.77 40.4693 117.168 39.7818 117.243 39.6436C117.731 38.7393 118.284 37.8089 118.756 36.9161C119.307 35.8764 119.955 34.8 120.516 33.7496L120.757 33.3204C120.77 33.3021 120.77 33.3032 120.78 33.2942C120.838 33.3642 121.738 34.9998 121.794 35.104C122.354 36.1534 122.985 37.2192 123.552 38.2724L124.31 39.6338C124.385 39.7652 124.778 40.4582 124.808 40.5448C124.245 40.5594 123.657 40.5486 123.092 40.5457C122.942 40.5448 122.839 40.5687 122.786 40.6757C122.724 40.8012 122.793 40.8977 122.846 40.9874C122.955 41.1764 123.064 41.3561 123.17 41.5392C124.016 42.989 124.895 44.4437 125.734 45.8949C125.948 46.2656 126.164 46.6211 126.377 46.9888C126.462 47.1354 126.995 48.0137 127.014 48.0868L125.069 48.0865C124.842 48.0865 124.626 48.0482 124.555 48.2312C124.497 48.3808 124.645 48.5917 124.704 48.7096C124.777 48.8555 124.847 48.9959 124.922 49.1454L125.353 50.0197L125.773 49.8159C125.738 49.6518 125.207 48.7379 125.161 48.5568C125.757 48.5586 126.353 48.5568 126.95 48.5568C127.203 48.5568 127.617 48.6332 127.663 48.3735C127.69 48.2216 127.483 47.9445 127.382 47.7706L123.579 41.3062C123.535 41.23 123.443 41.0967 123.415 41.0173C123.684 41.01 125.17 41.0367 125.285 41.005C125.388 40.9763 125.479 40.8585 125.442 40.7183C125.427 40.6596 125.309 40.4651 125.276 40.4058L124.605 39.1957C124.494 38.986 124.377 38.7987 124.268 38.592C123.856 37.8037 123.344 36.9639 122.919 36.1638C122.494 35.3655 122.009 34.5463 121.574 33.7458L120.982 32.6795C120.943 32.6203 120.901 32.6012 120.852 32.5629H120.713C120.58 32.6548 120.584 32.6521 120.501 32.8092C120.447 32.9102 120.389 33.0142 120.331 33.1182L119.658 34.3261C119.544 34.5264 119.432 34.7258 119.322 34.9312L118.651 36.1415C118.42 36.5454 118.205 36.9539 117.972 37.3584L117.3 38.5687C116.983 39.1641 116.615 39.7923 116.288 40.3946C116.241 40.4814 116.157 40.6073 116.124 40.6926C116.065 40.8476 116.158 40.9684 116.262 41.0015C116.43 41.0547 117.8 40.9822 118.142 41.0201C117.936 41.398 117.706 41.7591 117.489 42.1364C116.84 43.2601 116.153 44.3878 115.505 45.5096C115.071 46.261 114.619 47.0069 114.182 47.7582C114.086 47.9239 113.872 48.2197 113.892 48.3603C113.929 48.6355 114.347 48.5568 114.595 48.5568C115.19 48.5568 115.785 48.5581 116.38 48.5568C116.356 48.6437 114.859 51.3316 114.699 51.6387C114.309 52.3879 113.833 53.1995 113.429 53.9555C113.258 54.2755 112.713 55.2251 112.584 55.5024C112.502 55.6768 112.618 55.8259 112.767 55.8437C112.915 55.8614 115.472 55.8465 115.758 55.8465C117.354 55.8465 118.949 55.8459 120.545 55.8465V59.0637L110.824 61.4914L110.931 61.9443V61.9443Z" fill="#1A1A18" stroke="#1A1A18" stroke-width="0.00184889" stroke-miterlimit="22.9256"/>
<path fill-rule="evenodd" clip-rule="evenodd" d="M124.908 56.5778L130.462 51.0837H124.908V56.5778Z" fill="white" stroke="#1A1A18" stroke-width="0.00184889" stroke-miterlimit="22.9256"/>
<path fill-rule="evenodd" clip-rule="evenodd" d="M125.262 56.9033L130.734 56.9013L130.706 51.5151L125.605 56.5658C125.493 56.6774 125.359 56.7892 125.262 56.9033V56.9033Z" fill="white" stroke="#1A1A18" stroke-width="0.00184889" stroke-miterlimit="22.9256"/>
</g>
<defs>
<clipPath id="clip0_291_169">
<rect width="139" height="139" fill="white"/>
</clipPath>
</defs>
</svg>
