<svg width="112" height="121" viewBox="0 0 112 121" fill="none" xmlns="http://www.w3.org/2000/svg">
<path fill-rule="evenodd" clip-rule="evenodd" d="M82.4174 107.186L64.6267 66.9231L63.7149 64.6292L88.5441 74.8745L87.5853 77.2266C87.294 77.946 87.623 78.7827 88.3443 79.0741C88.5206 79.1522 88.7123 79.1907 88.8886 79.1907C89.4567 79.1907 89.9774 78.8608 90.2153 78.3158L91.1663 75.9638L94.7239 77.4418C94.9009 77.4991 95.0922 77.538 95.2685 77.538C95.8281 77.538 96.3573 77.2085 96.5717 76.6639C96.8793 75.9442 96.5259 75.1082 95.8127 74.8168L92.2552 73.3392L93.2212 71.0064C93.5207 70.2859 93.1828 69.4499 92.4465 69.1405C91.7264 68.8468 90.89 69.1978 90.5986 69.9176L89.6248 72.2692L62.2731 60.9554L61.9052 60.0221L61.6134 59.3023L62.3493 58.9906L87.6469 48.4153C87.9152 48.7456 88.3058 48.9199 88.7123 48.9199C88.8886 48.9196 89.0653 48.8826 89.2565 48.8045L92.6 47.4039L91.8253 48.9784C91.4581 49.6789 91.7641 50.5338 92.4696 50.8844C92.6612 50.9818 92.876 51.0399 93.0904 51.0399C93.6119 51.0399 94.1184 50.7489 94.3555 50.2424L96.7642 45.4021L96.8411 45.2462V45.2269C96.9023 45.1488 96.9169 45.0718 96.94 44.9748C96.9793 44.8182 96.9935 44.6627 96.9781 44.508C96.9793 44.4294 96.9554 44.3521 96.94 44.2936C96.9177 44.2158 96.9016 44.1381 96.8631 44.0599L96.1433 42.291C95.8281 41.5716 94.9921 41.2222 94.2716 41.5328L87.4087 44.3909C87.0634 44.5461 86.7878 44.819 86.6339 45.1692C86.5581 45.3628 86.5188 45.596 86.5577 45.81L63.9832 55.2387L81.558 14.8011C97.9061 23.8221 109.009 41.2414 109.009 61.2272C109.009 80.8438 98.2976 98.0298 82.4174 107.186ZM77.4408 117.645L75.9224 115.623C75.593 115.176 75.3393 114.729 75.1473 114.264L74.9718 113.777L74.4656 112.474L73.9368 111.133L64.7422 87.2791L69.6268 85.2569L79.9099 108.548L80.493 109.869L81.0514 111.151L81.2897 111.696C81.5048 112.183 81.6342 112.688 81.7188 113.214L82.0645 115.721L77.4408 117.645ZM55.9775 114.264C50.8631 114.264 45.9011 113.544 41.2158 112.163L56.2692 73.2611L71.2372 112.027C66.4141 113.485 61.2836 114.264 55.9775 114.264ZM38.4943 111.307L37.9955 112.631L37.4666 113.952L37.3666 114.225C37.1753 114.711 36.9066 115.158 36.5926 115.605L35.0746 117.627L30.427 115.682L30.7957 113.193C30.88 112.669 31.0098 112.163 31.2091 111.696L31.3631 111.366L31.93 110.084L32.5135 108.779L42.9344 85.2369L47.8109 87.2791L38.4943 111.307ZM2.9371 61.2272C2.9371 41.0278 14.2932 23.4526 30.9331 14.4901L48.6088 55.3368L25.9034 45.9459C25.9411 45.3439 25.6117 44.7797 25.0213 44.5272L18.1433 41.6883C17.8134 41.5524 17.4066 41.5528 17.0691 41.6883C16.7246 41.8441 16.4479 42.1163 16.2947 42.4658L15.5742 44.1962C15.5742 44.2351 15.5588 44.2547 15.5588 44.2936C15.5207 44.3713 15.4968 44.4495 15.4822 44.5272C15.4206 44.7601 15.4206 45.0318 15.5203 45.285L17.2838 50.5727C17.484 51.1565 18.0432 51.5257 18.6256 51.5257C18.7876 51.5257 18.94 51.5068 19.0936 51.4479C19.8383 51.2143 20.2213 50.4183 19.9673 49.6597L19.1706 47.2684L23.2192 48.94C23.3882 49.0181 23.5641 49.0574 23.7407 49.0574C23.9401 49.057 24.1314 49.0181 24.2846 48.94C24.5001 48.8618 24.676 48.7267 24.8138 48.5508L50.2419 59.0695L50.6479 60.0221L50.9397 60.7018L50.2796 60.9739L22.9282 72.4059L21.9545 70.0731C21.6396 69.3333 20.8264 69.0027 20.0905 69.296C19.3696 69.6054 19.0401 70.4422 19.3311 71.1619L20.2979 73.514L16.7631 74.9912C16.0414 75.2829 15.6966 76.1197 16.0033 76.8386C16.2339 77.3825 16.7627 77.7131 17.3065 77.7131C17.484 77.7127 17.6749 77.6738 17.8666 77.5957L21.4098 76.1197L22.384 78.4532C22.6134 78.9963 23.1422 79.3265 23.6869 79.3265C23.8785 79.3262 24.0702 79.2873 24.2311 79.2096C24.9674 78.9186 25.2968 78.0818 25.0055 77.364L24.0171 75.0104L48.8228 64.6492L47.9491 66.8654L29.9821 107.438C13.8645 98.3404 2.9371 81.0389 2.9371 61.2272ZM30.9181 4.92522C31.2869 4.16699 31.9681 3.54424 32.8195 3.19515C33.3102 3.00078 33.8087 2.9034 34.2994 2.9034C35.1735 2.90302 35.9864 3.23363 36.5156 3.81674C36.6153 3.89449 36.6919 4.01188 36.7688 4.1285C36.8454 4.2455 36.9066 4.36136 36.9601 4.47798L38.4169 8.19177L38.9469 9.49385L39.4681 10.8348L50.4332 38.6757L54.7512 49.6397L55.5248 51.5841L56.2839 53.5282L57.9558 57.7666V57.7855L56.2692 58.4864L54.4206 59.2638L53.953 59.4386L53.9376 59.4582L53.5854 59.6125V59.5937L53.1936 58.7388L52.9407 58.1357L52.3969 56.8725L52.1286 56.2883L33.4638 13.2073L32.8961 11.8844L32.3364 10.6012L30.7957 7.04441C30.5271 6.38279 30.5648 5.64458 30.9181 4.92522ZM55.9775 8.19177C60.9699 8.19177 65.7921 8.89072 70.3623 10.1747L56.2839 45.7908L42.1908 10.0188C46.5843 8.833 51.2153 8.19177 55.9775 8.19177ZM49.6361 82.535L48.8228 84.6157L44.0763 82.6508L44.9735 80.6098L49.6361 82.535ZM46.1166 78.006L50.571 67.9735L52.2583 63.7151L54.7277 69.4314L54.6131 69.7035L50.6718 79.8904L46.1166 78.006ZM67.5642 80.6098L68.4767 82.6709L63.7145 84.6338L62.8947 82.535L67.5642 80.6098ZM61.8659 79.8904L57.9177 69.6443L57.8253 69.4114L57.0432 67.6429L56.2839 65.8547L54.6889 62.1986L56.2458 61.5566L58.1167 60.7603L58.577 60.5659L58.9912 60.4096L59.0066 60.4304L59.336 61.2853L59.5739 61.8491L60.0796 63.1127L60.2944 63.7151L62.0041 68.0312L66.4141 78.006L61.8659 79.8904ZM73.1008 11.0296L73.6061 9.68822L74.1358 8.38614L75.6688 4.51724C76.2519 3.097 78.1228 2.51466 79.8098 3.21439C81.5049 3.93336 82.3936 5.64457 81.8339 7.04441L80.1624 10.8548L79.6177 12.1573L79.0354 13.4794L60.4245 56.2883L57.8022 49.6597L73.1008 11.0296ZM111.847 61.2272C111.847 40.0952 100.068 21.6444 82.708 12.1761L84.4331 8.15252C85.622 5.29395 84.0501 1.91192 80.8983 0.58944C77.7472 -0.713024 74.227 0.570206 73.0462 3.44764L71.4289 7.53015C66.5131 6.11106 61.3371 5.35282 55.9771 5.35282C50.8392 5.35243 45.863 6.05294 41.1393 7.37503L39.5828 3.40836C38.4015 0.549787 34.8821 -0.713019 31.7303 0.570201C30.2357 1.1918 29.0314 2.30105 28.3721 3.68126C27.667 5.13922 27.59 6.71342 28.1954 8.15252L29.8062 11.8844C12.1544 21.2749 0.100098 39.8801 0.100098 61.2272C0.100098 82.1847 11.7095 100.499 28.832 110.045L28.6019 110.569C28.2878 111.288 28.0961 112.027 27.9811 112.785L27.4753 116.363C27.3752 117.024 27.7278 117.645 28.3259 117.899L34.9976 120.659C35.1735 120.737 35.3655 120.756 35.5418 120.756C35.9863 120.756 36.4005 120.562 36.6688 120.192L38.8703 117.296C39.3145 116.673 39.7052 116.013 40.0119 115.274L40.1659 114.827C45.2041 116.304 50.4943 117.102 55.9771 117.102C61.6369 117.101 67.1189 116.247 72.2641 114.672L72.5173 115.331C72.7933 116.033 73.1843 116.694 73.6442 117.315L75.8069 120.213C76.0983 120.581 76.5048 120.794 76.9493 120.794C77.1256 120.794 77.325 120.756 77.4936 120.679L84.1883 117.918C84.7714 117.684 85.1386 117.043 85.0393 116.403L84.5178 112.825C84.4189 112.047 84.2033 111.308 83.9119 110.569L83.5594 109.811C100.437 100.186 111.847 82.0104 111.847 61.2272Z" fill="#1A1A18"/>
</svg>
