<svg width="114" height="113" viewBox="0 0 114 113" fill="none" xmlns="http://www.w3.org/2000/svg">
<path fill-rule="evenodd" clip-rule="evenodd" d="M109.028 68.0901C106.517 68.6513 104.928 69.9707 103.48 71.1619C101.716 72.5998 100.209 73.8484 97.0561 73.8484C93.9019 73.8484 92.3836 72.5998 90.6323 71.1619C88.7171 69.5858 86.5444 67.7999 82.3399 67.7999C78.1473 67.7991 75.9742 69.5862 74.0594 71.1619C72.307 72.5998 70.7886 73.8484 67.6471 73.8484C64.4934 73.8484 62.9754 72.5998 61.2237 71.1619C59.367 69.632 57.2759 67.9161 53.3166 67.8107V63.0334C53.3166 62.2279 52.6623 61.5736 51.8448 61.5736H44.9887V53.7719C45.0241 53.7834 45.0592 53.7834 45.0938 53.7834H45.1061L50.3733 53.7257V55.7925C50.3733 56.61 51.0388 57.2636 51.8448 57.2636C52.6623 57.2632 53.3166 56.61 53.3166 55.7925V48.9369C53.3166 48.119 52.6623 47.4655 51.8448 47.4655C51.0388 47.4651 50.3733 48.119 50.3733 48.9369V50.7817L45.0711 50.8525C45.0469 50.8525 45.0122 50.8525 44.9887 50.8633V43.0735L51.8367 43.0489C52.6542 43.0489 53.3077 42.3838 53.3077 41.5774V35.2934C53.3077 34.5467 52.7473 33.9158 52.0114 33.8346L20.5675 30.3541C20.1588 30.2964 19.7373 30.4368 19.4229 30.717C19.108 30.9853 18.9318 31.3944 18.9318 31.8147V41.6017C18.9318 42.4084 19.5861 43.0735 20.404 43.0735H26.3955V61.5736H3.70209C3.5389 59.8916 3.45653 58.175 3.45653 56.4468C3.4573 26.9909 27.4232 3.03702 56.8791 3.03702C86.3347 3.03702 110.3 26.9913 110.3 56.4468C110.301 60.4408 109.857 64.3421 109.028 68.0901ZM104.239 81.1602C103.982 81.3584 103.725 81.5689 103.48 81.7675C101.716 83.2043 100.209 84.4536 97.0561 84.4536C93.9019 84.4532 92.3836 83.2047 90.6323 81.7675C88.7171 80.1902 86.5444 78.4047 82.3399 78.4047C78.1473 78.4047 75.9742 80.1902 74.0594 81.7675C72.307 83.2043 70.7886 84.4536 67.6471 84.4536C64.4934 84.4532 62.9754 83.2047 61.2237 81.7675C59.367 80.2364 57.2759 78.521 53.3166 78.4159V70.7539C56.2132 70.8463 57.6724 72.0506 59.3547 73.4285C61.2707 75.005 63.443 76.7801 67.6471 76.7801C71.8409 76.7797 74.0128 75.005 75.928 73.4285C77.6804 71.9925 79.1984 70.7424 82.3399 70.7424C85.4937 70.7424 87.0113 71.9925 88.7633 73.4285C90.6789 75.005 92.8516 76.7801 97.0561 76.7801C101.261 76.7797 103.433 75.005 105.348 73.4285C106.259 72.6807 107.1 71.9925 108.139 71.5014C107.148 74.8657 105.839 78.0999 104.239 81.1602ZM94.2176 94.6143C92.7812 94.1359 91.7531 93.2949 90.6323 92.3727C88.7171 90.7951 86.5444 89.0088 82.3399 89.0088C78.1473 89.0084 75.9742 90.7951 74.0598 92.3727C72.307 93.8091 70.7886 95.0593 67.6471 95.0593C64.4934 95.0593 62.9754 93.8099 61.2237 92.3727C59.367 90.8424 57.2759 89.1262 53.3166 89.0211V81.3584C56.2132 81.4511 57.6724 82.6558 59.3547 84.0337C61.2707 85.6098 63.443 87.3853 67.6471 87.3853C71.8409 87.3849 74.0128 85.6102 75.928 84.0337C77.6804 82.5969 79.1984 81.3476 82.3399 81.3476C85.4937 81.3476 87.0113 82.5977 88.7633 84.0337C90.6789 85.6098 92.8516 87.3853 97.0561 87.3853C98.5275 87.3849 99.7542 87.1636 100.805 86.813C98.8662 89.6161 96.6585 92.2322 94.2176 94.6143ZM56.8795 109.868C55.6759 109.868 54.4966 109.834 53.3166 109.751V91.9628C56.2132 92.0571 57.6724 93.2607 59.3547 94.6386C61.2707 96.2151 63.443 97.9902 67.6471 97.9902C71.8409 97.9902 74.0128 96.2151 75.928 94.6386C77.6804 93.2014 79.1984 91.9524 82.3399 91.9524C85.4937 91.9524 87.0113 93.2014 88.7633 94.6386C89.6747 95.3849 90.6323 96.18 91.847 96.7985C82.4684 104.94 70.2401 109.868 56.8795 109.868ZM21.8754 40.1303V33.4613L50.3764 36.6016V40.106L21.8754 40.1303ZM29.3395 43.0735H42.0455V61.5736H29.3395V43.0735ZM50.3733 109.471C26.6295 106.575 7.63835 88.0393 4.06389 64.5064L50.3733 64.5056V109.471ZM56.8795 0.0933838C25.7993 0.0933838 0.513672 25.3794 0.513672 56.4468C0.514057 58.175 0.596039 59.8808 0.747685 61.5736C0.829281 62.555 0.946286 63.5361 1.09832 64.5064C4.70665 89.6627 25.0057 109.506 50.3733 112.438C51.3425 112.554 52.3239 112.636 53.3166 112.694C54.4966 112.776 55.6871 112.811 56.8791 112.811C71.618 112.811 85.0376 107.136 95.082 97.8393C96.0631 96.9398 97.0092 96.0049 97.9202 95.0242C101.283 91.4497 104.18 87.4438 106.527 83.0992C107.275 81.6974 107.976 80.2722 108.607 78.8008C109.728 76.2197 110.662 73.522 111.398 70.7539C111.526 70.2512 111.643 69.7609 111.76 69.2586C112.73 65.1365 113.232 60.85 113.232 56.4468C113.232 25.379 87.9577 0.0941536 56.8795 0.0933838Z" fill="#1A1A18"/>
</svg>
