<svg width="113" height="113" viewBox="0 0 113 113" fill="none" xmlns="http://www.w3.org/2000/svg">
<path fill-rule="evenodd" clip-rule="evenodd" d="M0.47876 55.0902C0.47876 65.0766 1.78507 71.2413 5.58662 79.8725C9.52442 88.8107 16.4309 96.5497 24.1687 102.165C26.5885 103.921 29.9235 105.87 32.928 107.206C41.3717 110.961 47.8836 112.317 57.7056 112.317C76.9631 112.317 94.0676 100.663 102.521 87.8912C127.908 49.5351 100.401 0.545303 56.1726 0.545303C39.1097 0.545303 25.433 8.40165 17.1779 16.6067C7.64039 26.0861 0.47876 40.307 0.47876 55.0902Z" fill="#010005"/>
<path fill-rule="evenodd" clip-rule="evenodd" d="M74.4875 6.85097L74.4382 34.2046C87.1172 36.4181 96.2122 53.0253 89.9239 66.1035C85.3698 75.5744 75.8488 81.2704 65.3464 79.6169C61.9336 79.0796 64.6432 80.3786 57.9873 84.7475C52.5989 88.2842 44.4866 89.8792 37.3542 87.1973C23.4397 81.9647 18.0932 65.9668 24.9523 54.0245C28.1777 48.4097 32.1455 45.2017 39.503 42.7646L39.5011 6.40411C29.4528 8.81082 18.433 18.3337 12.5681 26.8117C-10.5087 60.1662 12.7798 108.87 55.4062 109.318C100.354 109.791 126.757 57.5574 95.9196 21.4829C91.2379 16.0063 81.5498 8.59683 74.4875 6.85097Z" fill="white"/>
<path fill-rule="evenodd" clip-rule="evenodd" d="M55.215 75.4328C50.5063 73.2193 45.5066 64.0943 45.5066 57.3896L45.6871 53.3001C44.3777 53.3009 42.8231 53.4691 41.7474 52.9025C40.2286 52.1031 40.9649 51.3857 38.9081 52.376C36.8962 53.3444 35.0488 54.9552 33.831 56.5036C31.0282 60.0657 29.9167 65.6535 31.8746 70.709C34.4476 77.3534 42.3386 81.3458 49.4863 79.0634C51.2183 78.5107 52.6009 77.801 54.0184 76.7052C54.1258 76.6221 54.4922 76.3481 54.5888 76.2541C55.1688 75.6914 54.8494 76.1344 55.215 75.4328Z" fill="white"/>
<path fill-rule="evenodd" clip-rule="evenodd" d="M51.0632 3.80113L50.9331 41.374C53.0789 40.1974 53.5019 37.2268 63.0078 34.0776V4.0567C59.4241 3.26537 54.767 3.61831 51.0632 3.80113Z" fill="white"/>
<path fill-rule="evenodd" clip-rule="evenodd" d="M58.7599 46.4679C61.6431 48.514 64.6937 51.8079 66.4954 56.0036C68.7135 61.1695 68.7816 65.1632 67.7971 71.01C75.5561 71.4272 81.3967 66.0072 82.7747 59.7016C84.512 51.7494 79.119 44.7668 73.5296 43.1298C72.0713 44.6717 71.4 44.6186 68.6912 44.6182C64.5532 44.6174 65.676 44.3788 63.8531 43.1618C61.9079 43.6163 59.5412 45.2432 58.7599 46.4679Z" fill="white"/>
<path fill-rule="evenodd" clip-rule="evenodd" d="M50.935 46.0134L50.94 48.7034C52.2078 49.6772 56.3281 50.5228 59.7012 55.6502C67.3116 67.2169 59.2417 82.8334 44.928 82.6891C28.0226 82.5182 21.9829 60.8205 34.6723 51.4727C39.6743 47.7877 39.5223 50.7075 39.4826 46.0038C34.9271 47.006 30.7372 50.8203 28.8008 53.5172C19.3591 66.6662 28.5491 85.2617 44.93 85.5515C60.5872 85.8286 71.3341 68.2735 61.9474 53.9136C59.9799 50.9038 55.6784 47.0438 50.935 46.0134Z" fill="white"/>
<path fill-rule="evenodd" clip-rule="evenodd" d="M42.5041 5.7825V44.6155C42.5041 46.065 42.0268 49.0236 42.9679 49.9165C43.3181 50.2495 47.5323 51.2498 47.9137 49.1768C47.9695 48.872 47.9449 48.041 47.9414 47.6911L47.9345 4.31223C46.7367 4.38766 43.133 4.90688 42.5041 5.7825Z" fill="white"/>
<path fill-rule="evenodd" clip-rule="evenodd" d="M67.6692 41.6137C72.3353 41.6137 71.4388 42.4809 71.4388 33.8852V5.81407L66.0342 4.40001L66.0073 38.229C65.9942 40.197 65.4561 41.6137 67.6692 41.6137Z" fill="white"/>
<path fill-rule="evenodd" clip-rule="evenodd" d="M74.446 40.3047C78.3226 41.2924 81.4086 44.3892 83.4662 47.4748C88.2385 54.6303 86.4495 64.7125 79.381 70.3784C75.9636 73.1177 72.3403 74.0175 66.9029 73.9879C65.9473 75.3854 65.7029 76.1871 65.8811 76.6548C71.388 77.6359 77.5316 75.4601 80.809 72.8298C89.4008 65.9341 91.5524 54.598 85.7171 45.7282C83.6748 42.6245 79.4749 38.2898 74.4394 37.3338L74.446 40.3047Z" fill="white"/>
<path fill-rule="evenodd" clip-rule="evenodd" d="M57.2749 73.1823L58.5093 70.9588L57.1864 69.6648C51.2017 64.1651 51.0031 59.3198 51.731 52.5307L50.3342 51.8575C45.5393 53.8043 50.0309 70.189 57.2749 73.1823Z" fill="white"/>
<path fill-rule="evenodd" clip-rule="evenodd" d="M59.3991 67.5137C60.4718 62.28 57.0848 55.4062 54.4475 54.531C53.978 59.563 55.8539 65.401 59.3991 67.5137Z" fill="white"/>
<path fill-rule="evenodd" clip-rule="evenodd" d="M53.3933 43.5779C54.3875 43.9377 55.2158 44.4727 56.2688 44.6678C59.0423 40.9883 62.8046 40.8798 63.0078 39.7613L62.9874 37.3176C59.4457 38.0951 54.4541 41.5599 53.3933 43.5779Z" fill="white"/>
</svg>
