<svg width="351" height="351" viewBox="0 0 351 351" fill="none" xmlns="http://www.w3.org/2000/svg">
<g filter="url(#filter0_d_325_857)">
<path d="M175.436 342.855C270.01 342.855 346.677 266.188 346.677 171.614C346.677 77.0407 270.01 0.373657 175.436 0.373657C80.8631 0.373657 4.19629 77.0407 4.19629 171.614C4.19629 266.188 80.8631 342.855 175.436 342.855Z" fill="#1A1A18"/>
<path d="M175.436 342.855C270.01 342.855 346.677 266.188 346.677 171.614C346.677 77.0407 270.01 0.373657 175.436 0.373657C80.8631 0.373657 4.19629 77.0407 4.19629 171.614C4.19629 266.188 80.8631 342.855 175.436 342.855Z" stroke="#1A1A18" stroke-width="0.00125333" stroke-miterlimit="22.9256"/>
</g>
<path fill-rule="evenodd" clip-rule="evenodd" d="M175.435 12.6066C263.253 12.6066 334.443 83.7968 334.443 171.615C334.443 259.433 263.253 330.624 175.435 330.624C87.6172 330.624 16.427 259.433 16.427 171.615C16.427 83.7968 87.6172 12.6066 175.435 12.6066" fill="white"/>
<path fill-rule="evenodd" clip-rule="evenodd" d="M81.8404 215.507C81.3027 215.365 80.7319 215.138 80.1284 214.825V212.979C80.5645 213.337 81.0983 213.627 81.7303 213.843C82.3627 214.062 83.0262 214.172 83.719 214.172C84.4015 214.171 84.9164 214.032 85.2636 213.751C85.61 213.471 85.7836 213.074 85.7836 212.561C85.7836 212.213 85.6835 211.928 85.4818 211.704C85.2798 211.481 85.0288 211.297 84.7263 211.151C84.4246 211.003 83.9985 210.832 83.4508 210.629L83.0817 210.495C82.4666 210.282 81.9601 210.065 81.5633 209.842C81.1657 209.617 80.8331 209.299 80.5645 208.884C80.2958 208.47 80.1619 207.939 80.1619 207.291C80.1619 206.751 80.2958 206.246 80.5645 205.762C80.8331 205.281 81.2527 204.888 81.8231 204.581C82.3935 204.273 83.1094 204.118 83.9708 204.118C84.5974 204.118 85.1216 204.177 85.54 204.294C85.9595 204.411 86.4598 204.611 87.0422 204.89V206.703C86.4714 206.344 85.9791 206.081 85.5657 205.907C85.1508 205.732 84.6586 205.646 84.0889 205.646C83.4285 205.645 82.9254 205.78 82.5782 206.049C82.2311 206.317 82.0583 206.669 82.0583 207.106C82.0583 207.475 82.1541 207.775 82.3435 208.004C82.5332 208.232 82.7822 208.417 83.0901 208.557C83.3981 208.698 83.8418 208.864 84.4246 209.052C85.107 209.277 85.6747 209.51 86.1273 209.749C86.5807 209.989 86.9529 210.32 87.2431 210.74C87.5345 211.158 87.6796 211.692 87.6796 212.341C87.6796 212.957 87.5425 213.521 87.2693 214.029C86.9945 214.536 86.5695 214.946 85.9937 215.254C85.4168 215.561 84.6982 215.716 83.8368 215.716C83.0424 215.715 82.3773 215.644 81.8404 215.507" fill="#1A1A18"/>
<path fill-rule="evenodd" clip-rule="evenodd" d="M94.606 209.927C95.4893 209.927 96.0963 209.744 96.4273 209.379C96.7567 209.017 96.9222 208.533 96.9222 207.929C96.9222 207.303 96.7567 206.805 96.4273 206.435C96.0963 206.065 95.4893 205.88 94.6056 205.88L92.2562 205.879V209.927H94.606V209.927ZM92.2562 215.515H90.4099V204.319H94.84C96.1274 204.319 97.1174 204.618 97.8109 205.218C98.5045 205.817 98.8521 206.697 98.8521 207.862C98.8521 209.024 98.5018 209.923 97.8025 210.554C97.1039 211.185 96.1163 211.501 94.84 211.501H92.2562V215.515V215.515Z" fill="#1A1A18"/>
<path fill-rule="evenodd" clip-rule="evenodd" d="M108.899 213.106C109.43 212.439 109.696 211.374 109.696 209.909C109.696 208.454 109.427 207.395 108.89 206.738C108.354 206.076 107.52 205.748 106.39 205.748C105.261 205.747 104.426 206.077 103.889 206.738C103.353 207.394 103.084 208.46 103.084 209.927C103.084 211.391 103.353 212.454 103.889 213.113C104.426 213.774 105.261 214.105 106.39 214.105C107.531 214.105 108.368 213.771 108.899 213.106ZM102.53 214.255C101.635 213.282 101.187 211.838 101.187 209.927C101.187 208.023 101.629 206.582 102.514 205.603C103.397 204.623 104.689 204.134 106.39 204.134C108.079 204.134 109.372 204.618 110.266 205.588C111.162 206.554 111.609 208.002 111.609 209.927C111.609 211.825 111.165 213.269 110.275 214.247C109.386 215.224 108.091 215.716 106.39 215.716C104.711 215.715 103.425 215.229 102.53 214.255" fill="#1A1A18"/>
<path fill-rule="evenodd" clip-rule="evenodd" d="M116.277 209.773H118.879C119.617 209.773 120.168 209.612 120.533 209.287C120.896 208.961 121.077 208.47 121.077 207.809C121.077 207.172 120.929 206.693 120.633 206.368C120.337 206.042 119.853 205.88 119.181 205.88L116.277 205.879V209.773V209.773ZM121.261 215.515L118.643 211.284H116.277V215.515H114.431V204.319H119.399C120.574 204.319 121.472 204.605 122.093 205.168C122.714 205.732 123.024 206.575 123.024 207.693C123.024 208.497 122.803 209.202 122.361 209.807C121.919 210.413 121.323 210.799 120.574 210.966L123.561 215.515H121.261V215.515Z" fill="#1A1A18"/>
<path fill-rule="evenodd" clip-rule="evenodd" d="M128.792 205.879H125.185V204.319H134.263V205.879H130.638V215.515H128.792V205.879Z" fill="#1A1A18"/>
<path fill-rule="evenodd" clip-rule="evenodd" d="M143.642 213.106C144.173 212.439 144.439 211.374 144.439 209.909C144.439 208.454 144.17 207.395 143.633 206.738C143.097 206.076 142.262 205.748 141.133 205.748C140.004 205.747 139.17 206.077 138.632 206.738C138.095 207.394 137.827 208.46 137.827 209.927C137.827 211.391 138.095 212.454 138.632 213.113C139.17 213.774 140.004 214.105 141.133 214.105C142.274 214.105 143.11 213.771 143.642 213.106V213.106ZM137.273 214.255C136.378 213.282 135.93 211.838 135.93 209.927C135.93 208.023 136.372 206.582 137.257 205.603C138.14 204.623 139.432 204.134 141.133 204.134C142.822 204.134 144.114 204.618 145.009 205.588C145.905 206.554 146.351 208.002 146.351 209.927C146.352 211.825 145.908 213.269 145.018 214.247C144.129 215.224 142.834 215.716 141.133 215.716C139.454 215.715 138.168 215.229 137.273 214.255" fill="#1A1A18"/>
<path fill-rule="evenodd" clip-rule="evenodd" d="M158.281 204.319L153.95 215.514H152.021L147.775 204.319H149.856L153.112 213.348L156.334 204.337L158.281 204.319Z" fill="#1A1A18"/>
<path fill-rule="evenodd" clip-rule="evenodd" d="M170.048 204.319V215.514H168.387L162.329 207.188V215.514H160.567V204.319H162.347L168.287 212.544V204.319H170.048Z" fill="#1A1A18"/>
<path fill-rule="evenodd" clip-rule="evenodd" d="M174.654 201.399H176.485L174.841 203.312H173.849L174.654 201.399ZM173.312 204.319H175.176V215.514H173.312V204.319Z" fill="#1A1A18"/>
<path fill-rule="evenodd" clip-rule="evenodd" d="M189.19 210.965L187.444 206.165L185.715 210.965H189.19V210.965ZM189.743 212.477H185.161L184.07 215.514H182.224L186.588 204.319H188.55L192.797 215.514H190.849L189.743 212.477V212.477Z" fill="#1A1A18"/>
<path fill-rule="evenodd" clip-rule="evenodd" d="M197.97 210.747L196.946 211.871V215.514H195.082V204.319H196.946V209.757L201.444 204.319H203.794L199.245 209.338L204.162 215.515H201.729L197.97 210.747V210.747Z" fill="#1A1A18"/>
<path fill-rule="evenodd" clip-rule="evenodd" d="M212.907 210.965L211.161 206.165L209.432 210.965H212.907V210.965ZM213.462 212.477H208.88L207.789 215.514H205.943L210.306 204.319H212.269L216.514 215.514H214.568L213.462 212.477Z" fill="#1A1A18"/>
<path fill-rule="evenodd" clip-rule="evenodd" d="M222.544 213.954C223.798 213.954 224.72 213.627 225.315 212.979C225.907 212.329 226.203 211.309 226.203 209.909C226.203 208.51 225.907 207.486 225.315 206.837C224.72 206.189 223.798 205.864 222.544 205.864L220.648 205.864V213.954H222.544ZM218.801 204.319H222.731C226.311 204.319 228.099 206.183 228.099 209.909C228.1 213.644 226.311 215.515 222.731 215.515H218.801V204.319V204.319Z" fill="#1A1A18"/>
<path fill-rule="evenodd" clip-rule="evenodd" d="M230.894 204.319H238.228V205.879H232.759V209.12H237.524V210.696H232.741V213.954H238.228V215.515H230.894V204.319Z" fill="#1A1A18"/>
<path fill-rule="evenodd" clip-rule="evenodd" d="M252.086 204.319V215.514H250.24V206.972L246.497 212.141L242.923 207.004V215.514H241.127V204.319H243.058L246.582 209.522L250.189 204.319H252.086V204.319Z" fill="#1A1A18"/>
<path d="M257.212 204.319H255.348V215.514H257.212V204.319Z" fill="#1A1A18"/>
<path fill-rule="evenodd" clip-rule="evenodd" d="M260.473 204.319H267.807V205.879H262.337V209.12H267.102V210.696H262.319V213.954H267.807V215.515H260.473V204.319Z" fill="#1A1A18"/>
<path fill-rule="evenodd" clip-rule="evenodd" d="M150.423 234.411C151.677 234.411 152.6 234.087 153.195 233.44C153.787 232.789 154.082 231.766 154.082 230.367C154.082 228.967 153.787 227.946 153.195 227.296C152.6 226.649 151.677 226.324 150.423 226.324L148.528 226.323V234.411H150.423ZM146.682 224.779H150.61C154.188 224.779 155.98 226.643 155.98 230.367C155.98 234.104 154.188 235.972 150.61 235.972L146.682 235.972V224.779Z" fill="#1A1A18"/>
<path fill-rule="evenodd" clip-rule="evenodd" d="M166.066 233.563C166.598 232.899 166.864 231.834 166.864 230.367C166.864 228.912 166.594 227.855 166.057 227.196C165.521 226.534 164.687 226.206 163.557 226.206C162.428 226.206 161.594 226.535 161.057 227.196C160.52 227.855 160.252 228.918 160.252 230.384C160.253 231.848 160.52 232.912 161.057 233.571C161.595 234.232 162.428 234.563 163.557 234.563C164.699 234.563 165.535 234.229 166.066 233.563V233.563ZM159.698 234.712C158.802 233.74 158.355 232.298 158.355 230.384C158.355 228.481 158.796 227.042 159.682 226.062C160.564 225.084 161.857 224.594 163.557 224.594C165.246 224.594 166.539 225.079 167.433 226.046C168.331 227.012 168.776 228.462 168.776 230.384C168.776 232.285 168.332 233.727 167.442 234.705C166.553 235.684 165.258 236.175 163.557 236.175C161.878 236.174 160.593 235.689 159.698 234.712" fill="#1A1A18"/>
<path fill-rule="evenodd" clip-rule="evenodd" d="M177.742 234.035C178.144 233.771 178.345 233.306 178.345 232.634C178.345 231.961 178.136 231.51 177.717 231.282C177.297 231.051 176.745 230.938 176.063 230.938L173.461 230.936V234.429H176.115C176.795 234.429 177.339 234.295 177.742 234.035V234.035ZM173.445 229.445H175.963C176.488 229.445 176.916 229.338 177.246 229.127C177.577 228.912 177.742 228.526 177.742 227.968C177.742 227.375 177.577 226.956 177.246 226.71C176.916 226.463 176.437 226.34 175.812 226.34H173.445V229.445ZM179.689 230.971C180.057 231.429 180.242 232.01 180.242 232.717C180.242 233.813 179.872 234.63 179.133 235.167C178.395 235.702 177.396 235.972 176.13 235.972L171.599 235.972V224.779H175.744C177.054 224.779 178.024 225.041 178.655 225.568C179.288 226.093 179.604 226.841 179.604 227.816C179.604 228.365 179.484 228.8 179.242 229.117C179.002 229.435 178.675 229.723 178.262 229.981C178.842 230.183 179.318 230.514 179.689 230.971" fill="#1A1A18"/>
<path fill-rule="evenodd" clip-rule="evenodd" d="M184.877 222.145H186.101L186.841 223.251L187.579 222.145H188.804L187.512 224.175H186.237L184.877 222.145ZM184.826 230.233H187.428C188.166 230.233 188.717 230.072 189.082 229.747C189.446 229.421 189.627 228.93 189.627 228.269C189.627 227.632 189.479 227.153 189.182 226.828C188.885 226.503 188.402 226.34 187.729 226.34H184.826V230.233V230.233ZM189.811 235.972L187.194 231.744H184.826V235.972H182.98V224.779H187.948C189.125 224.779 190.022 225.062 190.642 225.625C191.262 226.189 191.573 227.033 191.573 228.151C191.573 228.957 191.352 229.662 190.91 230.266C190.469 230.87 189.873 231.259 189.124 231.424L192.11 235.972H189.811Z" fill="#1A1A18"/>
<path fill-rule="evenodd" clip-rule="evenodd" d="M195.961 221.857H197.791L196.146 223.772H195.156L195.961 221.857ZM194.619 224.779H196.482V235.972H194.619V224.779Z" fill="#1A1A18"/>
<path fill-rule="evenodd" clip-rule="evenodd" d="M201.237 221.991H202.461L203.2 223.099L203.939 221.991H205.163L203.872 224.025H202.597L201.237 221.991ZM201.104 235.964C200.566 235.825 199.995 235.599 199.391 235.283V233.439C199.828 233.797 200.361 234.085 200.993 234.301C201.627 234.522 202.288 234.63 202.982 234.63C203.664 234.629 204.179 234.49 204.526 234.211C204.872 233.93 205.046 233.534 205.046 233.019C205.046 232.672 204.947 232.389 204.744 232.162C204.542 231.939 204.292 231.755 203.988 231.609C203.688 231.463 203.262 231.29 202.713 231.089L202.345 230.953C201.729 230.742 201.224 230.522 200.826 230.3C200.429 230.077 200.095 229.759 199.828 229.343C199.558 228.93 199.424 228.397 199.424 227.749C199.424 227.211 199.558 226.704 199.828 226.221C200.095 225.741 200.517 225.348 201.086 225.039C201.656 224.731 202.373 224.579 203.233 224.579C203.861 224.578 204.384 224.635 204.804 224.753C205.223 224.869 205.723 225.07 206.305 225.349L206.305 227.16C205.735 226.804 205.242 226.539 204.829 226.365C204.414 226.189 203.922 226.104 203.353 226.104C202.692 226.103 202.188 226.24 201.841 226.507C201.495 226.774 201.322 227.129 201.322 227.566C201.322 227.933 201.416 228.233 201.607 228.463C201.796 228.692 202.044 228.877 202.353 229.017C202.66 229.155 203.105 229.321 203.687 229.513C204.371 229.734 204.937 229.968 205.39 230.207C205.845 230.447 206.217 230.778 206.506 231.197C206.797 231.617 206.943 232.152 206.943 232.802C206.943 233.415 206.805 233.979 206.531 234.487C206.258 234.996 205.833 235.406 205.256 235.712C204.68 236.019 203.961 236.175 203.101 236.175C202.306 236.174 201.641 236.102 201.104 235.964" fill="#1A1A18"/>
<path fill-rule="evenodd" clip-rule="evenodd" d="M119.994 139.513H110.449C109.09 139.513 108.165 139.296 107.673 138.864C107.201 138.411 106.964 137.545 106.964 136.265V120.932C106.964 119.654 107.201 118.787 107.673 118.354C108.165 117.9 109.09 117.686 110.448 117.686L115.034 117.685C116.333 117.685 117.219 117.901 117.691 118.354C118.183 118.786 118.42 119.654 118.42 120.933V129.632H132.414V119.004C132.414 111.052 128.083 107.056 119.384 107.056L106.118 107.056C97.4191 107.056 93.0887 111.053 93.0887 119.004V137.702C93.0887 145.751 97.2217 149.787 105.508 149.787L115.29 149.786C116.57 149.786 117.455 150.004 117.947 150.436C118.42 150.89 118.655 151.755 118.655 153.035V169.331C118.655 170.61 118.42 171.478 117.947 171.91C117.455 172.362 116.57 172.579 115.29 172.579L110.704 172.578C109.326 172.578 108.4 172.362 107.929 171.91C107.437 171.476 107.201 170.611 107.201 169.331V160.75H93.3243V171.26C93.3243 179.212 97.7136 183.208 106.472 183.208L119.502 183.207C128.28 183.207 132.65 179.212 132.65 171.261V151.341C132.65 143.469 128.438 139.513 119.994 139.513" fill="#1A1A18"/>
<path fill-rule="evenodd" clip-rule="evenodd" d="M168.091 156.893L174.37 120.461L181.004 156.893H168.091ZM183.778 107.056H165.08L149.748 183.207H163.624L166.281 167.403H182.932L185.826 183.207H199.82L183.778 107.056V107.056Z" fill="#1A1A18"/>
<path fill-rule="evenodd" clip-rule="evenodd" d="M245.043 169.804C245.043 171.103 244.787 171.969 244.315 172.402C243.823 172.834 242.937 173.071 241.658 173.071H230.793V117.193H241.658C242.937 117.193 243.823 117.43 244.315 117.863C244.788 118.295 245.043 119.162 245.043 120.461V169.804ZM245.87 107.056H216.917V183.207H245.87C254.648 183.207 259.038 179.212 259.038 171.261V119.004C259.038 111.052 254.648 107.056 245.87 107.056" fill="#1A1A18"/>
<defs>
<filter id="filter0_d_325_857" x="0.195679" y="0.373032" width="350.482" height="350.482" filterUnits="userSpaceOnUse" color-interpolation-filters="sRGB">
<feFlood flood-opacity="0" result="BackgroundImageFix"/>
<feColorMatrix in="SourceAlpha" type="matrix" values="0 0 0 0 0 0 0 0 0 0 0 0 0 0 0 0 0 0 127 0" result="hardAlpha"/>
<feOffset dy="4"/>
<feGaussianBlur stdDeviation="2"/>
<feComposite in2="hardAlpha" operator="out"/>
<feColorMatrix type="matrix" values="0 0 0 0 0 0 0 0 0 0 0 0 0 0 0 0 0 0 0.25 0"/>
<feBlend mode="normal" in2="BackgroundImageFix" result="effect1_dropShadow_325_857"/>
<feBlend mode="normal" in="SourceGraphic" in2="effect1_dropShadow_325_857" result="shape"/>
</filter>
</defs>
</svg>
