<svg width="113" height="119" viewBox="0 0 113 119" fill="none" xmlns="http://www.w3.org/2000/svg">
<path fill-rule="evenodd" clip-rule="evenodd" d="M56.3527 115.584C26.8614 115.584 2.86011 91.5906 2.86011 62.092C2.86011 34.4943 23.8631 11.7131 50.7245 8.89841L23.6329 76.2928C23.4952 76.6304 23.5102 77.0137 23.6711 77.3363C23.8323 77.6657 24.1233 77.9113 24.4766 78.0029L71.221 91.0772C71.3057 92.4882 71.3742 93.8992 71.4208 95.2948C56.2303 98.83 40.8098 98.2927 40.5792 98.2773C39.851 98.2696 39.276 98.8065 39.2452 99.512C39.2221 100.217 39.7663 100.816 40.4799 100.846C40.5103 100.846 41.4229 100.885 43.0029 100.885L42.765 105.033C43.3939 105.048 44.0455 104.957 44.6971 104.757C46.7217 104.105 48.1323 102.51 48.4313 100.785C51.8669 100.654 56.1611 100.378 60.8001 99.7892C75.8066 97.8867 87.0865 93.8769 94.3324 87.8641C94.8847 87.4204 94.954 86.6067 94.5018 86.0621C94.0495 85.5175 93.244 85.442 92.6993 85.8935C87.7 90.043 80.9521 92.8104 73.9664 94.6582C73.5754 84.6442 72.4176 74.2764 70.8684 64.2624V64.2547C73.1612 62.2529 73.951 60.8045 73.5292 59.4697C73.0234 57.8979 71.0755 57.5603 69.7488 57.4298C66.1524 36.7875 61.222 18.3767 58.4154 8.63784C86.9641 9.72631 109.853 33.2831 109.853 62.092C109.853 91.5906 85.8518 115.585 56.3527 115.584ZM44.1683 27.915L44.7433 26.7723L44.8888 26.8419L44.4058 28.0378L44.1683 27.915ZM70.2014 60.0902C70.6306 60.1595 70.8684 60.2368 71.0062 60.298C70.93 60.4508 70.7611 60.7345 70.3777 61.1644C70.3165 60.8045 70.2545 60.4508 70.2014 60.0902ZM71.0524 88.3626L30.8104 77.1065C40.518 75.4265 59.7344 71.5541 68.5295 65.9948C69.6418 73.3712 70.5309 80.9246 71.0524 88.3626ZM66.9037 49.0181L67.3563 49.2479L67.0573 49.8306C67.0038 49.5542 66.9503 49.2864 66.9037 49.0181ZM68.1007 63.1959C59.4049 69.545 34.4295 73.9396 26.846 75.1659L41.3771 39.0102L66.045 51.464C66.7736 55.2829 67.471 59.2092 68.1007 63.1959ZM64.6267 38.1523L64.9258 38.2982L64.7418 38.6661C64.7037 38.4895 64.6648 38.3289 64.6267 38.1523ZM65.4242 48.2733L42.3432 36.6185L45.0809 29.8087L63.484 39.0102V39.0187C64.1437 42.0016 64.7953 45.0922 65.4242 48.2733ZM53.5769 8.66825L54.1596 7.21145L54.7505 5.75503L54.8267 5.5545C54.8421 5.61609 54.8651 5.67767 54.8802 5.74695C55.0187 6.1838 55.1561 6.65952 55.3097 7.17334C55.4402 7.62559 55.578 8.10093 55.7242 8.60706C57.4647 14.5644 60.11 24.1966 62.7558 35.7748L46.0393 27.4166L53.5769 8.66825ZM57.5648 5.74617C56.7442 2.97882 56.2377 1.40655 56.2069 1.32265C56.0464 0.808435 55.5703 0.45626 55.0341 0.433167C54.4895 0.440479 53.9984 0.739924 53.7994 1.23797L51.9281 5.90013C22.9201 8.16982 0 32.501 0 62.092C0 93.171 25.2818 118.452 56.3527 118.452C87.4314 118.452 112.713 93.1714 112.713 62.092C112.714 31.4198 88.0903 6.39048 57.5648 5.74617Z" fill="#1A1A18"/>
</svg>
