<svg width="23" height="16" viewBox="0 0 23 16" fill="none" xmlns="http://www.w3.org/2000/svg">
<g id="youtube-outlined">
<path id="Shape" fill-rule="evenodd" clip-rule="evenodd" d="M19.7285 0.489988L18.2685 0.339988C13.9002 -0.113329 9.49672 -0.113329 5.12844 0.339988L3.72843 0.489988C1.99995 0.685351 0.701979 2.1607 0.728424 3.89999V12.1C0.701979 13.8393 1.99995 15.3146 3.72843 15.51L5.18844 15.66C7.36105 15.8869 9.54402 16.0004 11.7285 16C13.9229 16.0014 16.1159 15.8879 18.2985 15.66L19.7285 15.51C21.457 15.3146 22.7549 13.8393 22.7285 12.1V3.89999C22.7549 2.1607 21.457 0.685351 19.7285 0.489988ZM20.7286 12.1C20.7565 12.8055 20.2473 13.4182 19.5486 13.52L18.0886 13.67C15.9758 13.8901 13.8529 14.0003 11.7286 14C9.60435 14.0003 7.48148 13.8901 5.36863 13.67L3.90863 13.52C3.20995 13.4182 2.70079 12.8055 2.72863 12.1V3.89998C2.70079 3.19448 3.20995 2.58176 3.90863 2.47998L5.36863 2.32998C9.59722 1.88997 13.8601 1.88997 18.0886 2.32998L19.5486 2.47998C20.2473 2.58176 20.7565 3.19448 20.7286 3.89998V12.1ZM10.1273 4.73859C10.3723 4.60879 10.6688 4.62469 10.8985 4.77993L14.7885 7.37993C14.9981 7.51651 15.1245 7.74975 15.1245 7.99993C15.1245 8.25011 14.9981 8.48335 14.7885 8.61993L10.8985 11.2199C10.6688 11.3752 10.3723 11.3911 10.1273 11.2613C9.88239 11.1315 9.72902 10.8771 9.72852 10.5999V5.39993C9.72902 5.12272 9.88239 4.86839 10.1273 4.73859Z" fill="#333333"/>
</g>
</svg>
